<?xml version="1.0" encoding="UTF-8"?>
<svg version="1.1" xmlns="http://www.w3.org/2000/svg" width="200" height="200">
<path d="M0 0 C66 0 132 0 200 0 C200 66 200 132 200 200 C134 200 68 200 0 200 C0 134 0 68 0 0 Z " fill="#19CBC1" transform="translate(0,0)"/>
<path d="M0 0 C6.3812747 2.229602 10.54564279 7.16839816 14.11366272 12.73858643 C15.35853797 15.91477889 15.27810457 18.71228685 15.30639648 22.12011719 C15.31472 22.82961517 15.32304352 23.53911316 15.33161926 24.27011108 C15.35568529 26.61242185 15.36448821 28.95445376 15.37109375 31.296875 C15.38006453 32.93109213 15.38918646 34.56530844 15.39845276 36.19952393 C15.41493737 39.62587476 15.42264157 43.05212797 15.42553711 46.47851562 C15.43091239 50.85440375 15.46855839 55.22936501 15.51428127 59.60499191 C15.54413045 62.98178393 15.5512624 66.3583552 15.55226326 69.73526764 C15.55645204 71.34752892 15.56883222 72.95979168 15.58978081 74.5719223 C15.78513715 90.90989256 15.78513715 90.90989256 10 97 C4.61748972 102.46223594 -0.31911513 104.29228138 -7.9375 104.375 C-14.681313 104.25545378 -17.87209506 103.20382496 -22.609375 98.3515625 C-27.67979328 92.82239209 -29.24478566 88.43002679 -29.29052734 80.84228516 C-29.29724457 80.14078842 -29.30396179 79.43929169 -29.31088257 78.71653748 C-29.32981418 76.40730625 -29.33378423 74.0983664 -29.3359375 71.7890625 C-29.34236867 70.17629885 -29.34909727 68.56353637 -29.35610962 66.95077515 C-29.36807018 63.57327572 -29.37179169 60.19587848 -29.37060547 56.81835938 C-29.37040232 52.50193905 -29.39770528 48.18617742 -29.43214989 43.8699131 C-29.45444614 40.53948997 -29.45844219 37.2092247 -29.45738602 33.87873459 C-29.45973784 32.28799545 -29.46853775 30.69725169 -29.48405075 29.10658646 C-29.50376771 26.87609678 -29.49785199 24.64701897 -29.48583984 22.41650391 C-29.48868988 21.15029205 -29.49153992 19.8840802 -29.49447632 18.57949829 C-28.6500726 12.46688674 -25.64074326 8.05719121 -20.875 4.125 C-20.19179688 3.55007812 -19.50859375 2.97515625 -18.8046875 2.3828125 C-13.55379196 -1.64060097 -6.29403869 -0.57218534 0 0 Z " fill="#FCFEFE" transform="translate(76,48)"/>
<path d="M0 0 C6.10987689 2.80755172 10.77503667 7.21730355 13.97265625 13.18359375 C16.09350385 19.26107639 15.30630576 25.96772023 13.0164032 31.88352966 C10.04666257 37.25423178 5.24298975 41.38816697 0.8984375 45.66015625 C-0.18236997 46.73925003 -1.2622862 47.81923715 -2.34135437 48.90007019 C-4.59737159 51.15444012 -6.861611 53.40008728 -9.13256836 55.6394043 C-12.03457762 58.5016907 -14.91855545 61.38135563 -17.79700947 64.26730824 C-20.02261427 66.49599045 -22.25576268 68.71698389 -24.49141502 70.93558311 C-25.55738651 71.99455404 -26.62144472 73.05545468 -27.68349648 74.1183567 C-29.1714327 75.60448382 -30.66881948 77.08039508 -32.16918945 78.55395508 C-33.01729691 79.39364334 -33.86540436 80.2333316 -34.73921204 81.09846497 C-38.8793108 84.60110566 -42.70052669 86.70200021 -48.17578125 86.453125 C-48.95695312 86.42605469 -49.738125 86.39898437 -50.54296875 86.37109375 C-51.12304688 86.33628906 -51.703125 86.30148438 -52.30078125 86.265625 C-51.80578125 85.275625 -51.80578125 85.275625 -51.30078125 84.265625 C-50.64078125 84.265625 -49.98078125 84.265625 -49.30078125 84.265625 C-48.97078125 83.275625 -48.64078125 82.285625 -48.30078125 81.265625 C-46.38916016 80.24145508 -46.38916016 80.24145508 -43.90234375 79.22265625 C-37.24409408 76.05957255 -32.71278506 71.23265121 -27.67578125 65.953125 C-26.76699219 65.02177734 -25.85820313 64.09042969 -24.921875 63.13085938 C-22.70291386 60.85350452 -20.49657102 58.56529129 -18.30078125 56.265625 C-19.78731631 52.79932665 -21.75800476 50.57540464 -24.43359375 47.9375 C-25.64208984 46.73867187 -25.64208984 46.73867187 -26.875 45.515625 C-27.71675781 44.690625 -28.55851562 43.865625 -29.42578125 43.015625 C-30.27527344 42.17515625 -31.12476562 41.3346875 -32 40.46875 C-34.09583048 38.39646817 -36.19618838 36.32900107 -38.30078125 34.265625 C-33.84857701 28.95080619 -29.18417884 23.93573987 -24.30078125 19.015625 C-23.615 18.30921875 -22.92921875 17.6028125 -22.22265625 16.875 C-17.00896517 11.62150975 -12.55908559 8.09388881 -4.92578125 7.578125 C-4.05179688 7.51238281 -3.1778125 7.44664063 -2.27734375 7.37890625 C-1.62507813 7.34152344 -0.9728125 7.30414063 -0.30078125 7.265625 C-5.6708302 5.47560868 -10.66594232 5.84845461 -15.93969727 7.90576172 C-21.31895563 11.00393865 -25.43083931 15.97950168 -29.67578125 20.453125 C-31.16640202 22.00647586 -32.66060982 23.55606677 -34.16055298 25.10041809 C-35.50845186 26.49075616 -36.84510773 27.89196791 -38.18115234 29.29370117 C-40.30078125 31.265625 -40.30078125 31.265625 -42.30078125 31.265625 C-42.88867806 28.40790143 -43.04232721 27.0425569 -42.30078125 24.265625 C-39.54861128 20.49197507 -36.23324445 17.3607592 -32.86328125 14.140625 C-31.98478516 13.26019531 -31.10628906 12.37976563 -30.20117188 11.47265625 C-21.46486035 2.92332114 -12.71493813 -4.05841828 0 0 Z " fill="#F9FDFD" transform="translate(138.30078125,65.734375)"/>
<path d="M0 0 C0.33 0 0.66 0 1 0 C1.15855469 0.83660156 1.31710938 1.67320313 1.48046875 2.53515625 C7.16395114 30.8897673 19.8857528 54.91115796 44.1171875 71.50390625 C57.89695405 80.58650276 72.66065971 85.76254079 89 88 C89 88.33 89 88.66 89 89 C59.63 89 30.26 89 0 89 C0 59.63 0 30.26 0 0 Z " fill="#FDFEFE" transform="translate(0,111)"/>
<path d="M0 0 C29.04 0 58.08 0 88 0 C88 0.33 88 0.66 88 1 C86.87464844 1.21914063 85.74929687 1.43828125 84.58984375 1.6640625 C57.06749014 7.24577201 33.11752286 20.60612194 17.12890625 44.22998047 C10.42616988 54.73924489 6.27246648 66.03372772 3 78 C2.8040625 78.6703125 2.608125 79.340625 2.40625 80.03125 C1.80982389 82.92162268 1.64343996 85.80800051 1.4375 88.75 C1.35371094 89.92046875 1.26992188 91.0909375 1.18359375 92.296875 C1.12300781 93.18890625 1.06242188 94.0809375 1 95 C0.67 95 0.34 95 0 95 C0 63.65 0 32.3 0 0 Z " fill="#FDFEFE" transform="translate(0,0)"/>
<path d="M0 0 C0.33 0 0.66 0 1 0 C1 29.37 1 58.74 1 89 C-28.37 89 -57.74 89 -88 89 C-88 88.67 -88 88.34 -88 88 C-87.01902344 87.85304688 -86.03804688 87.70609375 -85.02734375 87.5546875 C-75.01352048 85.93701215 -66.23379211 83.16084306 -57 79 C-55.97261719 78.55914062 -54.94523437 78.11828125 -53.88671875 77.6640625 C-45.26308731 73.71204067 -38.1699667 68.11843517 -31 62 C-30.31035156 61.41476563 -29.62070313 60.82953125 -28.91015625 60.2265625 C-12.48589291 45.00030425 -2.72631083 21.85117781 0 0 Z " fill="#FDFEFE" transform="translate(199,111)"/>
<path d="M0 0 C29.37 0 58.74 0 89 0 C89 29.37 89 58.74 89 89 C88.67 89 88.34 89 88 89 C87.85304688 88.030625 87.70609375 87.06125 87.5546875 86.0625 C83.06445181 58.45328941 69.46628183 36.03699741 47.3046875 18.91796875 C39.13016436 13.09334259 30.33670678 9.49201712 21 6 C20.12085938 5.6596875 19.24171875 5.319375 18.3359375 4.96875 C12.3888825 2.80618455 6.24647381 1.89839302 0 1 C0 0.67 0 0.34 0 0 Z " fill="#FDFEFE" transform="translate(111,0)"/>
<path d="M0 0 C0.66 0.33 1.32 0.66 2 1 C0.8553125 2.0209375 0.8553125 2.0209375 -0.3125 3.0625 C-5.28322353 8.49561642 -6.44457689 13.69731885 -6.51171875 20.90234375 C-6.53864555 21.98619102 -6.53864555 21.98619102 -6.56611633 23.0919342 C-6.61980006 25.37373211 -6.65397763 27.65532606 -6.6875 29.9375 C-6.72071036 31.49547085 -6.75520341 33.05341491 -6.79101562 34.61132812 C-6.87789088 38.40757455 -6.93831089 42.20292885 -7 46 C2.9 46 12.8 46 23 46 C23.09229208 50.69664148 23.17178017 55.39008515 23.21972656 60.08691406 C23.23973053 61.68142408 23.26694301 63.27586178 23.30175781 64.87011719 C23.68726834 82.9891118 23.68726834 82.9891118 17.24609375 89.875 C11.63334582 93.36629893 6.52654852 94.05105459 0 93 C-5.5011628 90.55503876 -8.77608002 86.51488321 -11 81 C-11.73373898 75.87476142 -11.70530278 70.78855398 -11.6640625 65.625 C-11.66743696 64.13101813 -11.67229482 62.63703895 -11.67855835 61.14306641 C-11.68590021 58.02284422 -11.67531261 54.90334121 -11.65185547 51.78320312 C-11.62336772 47.8018366 -11.63978641 43.82215564 -11.66971779 39.84085083 C-11.68786467 36.75906889 -11.68199936 33.67768062 -11.66907883 30.59588623 C-11.66576512 29.12880245 -11.66975963 27.66168185 -11.68147659 26.19464111 C-11.73173312 18.13531654 -11.7592489 11.2077579 -6 5 C-4.07125845 3.16241902 -2.14430462 1.59576158 0 0 Z " fill="#25C9CE" transform="translate(63,54)"/>
<path d="M0 0 C0.99 0 1.98 0 3 0 C3.14612187 4.49965437 3.2343523 8.99869238 3.3125 13.5 C3.3753418 15.40265625 3.3753418 15.40265625 3.43945312 17.34375 C3.5372933 24.85787521 3.20239407 30.29289605 -2 36 C-4.3125 38 -4.3125 38 -6 39 C-6.66 38.67 -7.32 38.34 -8 38 C-7.21625 37.2575 -6.4325 36.515 -5.625 35.75 C-1.37275472 31.29526685 -0.7476493 28.41067354 -0.5859375 22.265625 C-0.52792969 20.32236328 -0.52792969 20.32236328 -0.46875 18.33984375 C-0.43729733 16.97656716 -0.40604993 15.61328582 -0.375 14.25 C-0.33679531 12.87106972 -0.29774213 11.49216266 -0.2578125 10.11328125 C-0.16351996 6.74232282 -0.0779178 3.37137022 0 0 Z " fill="#F5FCFC" transform="translate(81,106)"/>
<path d="M0 0 C0.99 0.33 1.98 0.66 3 1 C-0.9939652 5.90687153 -5.3040953 10.44270563 -9.75 14.9375 C-10.32903076 15.52942139 -10.90806152 16.12134277 -11.50463867 16.73120117 C-12.96410929 18.19409125 -14.47812494 19.60214515 -16 21 C-16.66 21 -17.32 21 -18 21 C-16.69311561 17.17518503 -15.18953972 14.82788401 -12.3046875 12.01171875 C-11.58925781 11.30595703 -10.87382813 10.60019531 -10.13671875 9.87304688 C-9.39035156 9.15181641 -8.64398438 8.43058594 -7.875 7.6875 C-6.74384766 6.57665039 -6.74384766 6.57665039 -5.58984375 5.44335938 C-3.73316465 3.62193367 -1.86984148 1.80789464 0 0 Z " fill="#F4FCFC" transform="translate(112,121)"/>
<path d="M0 0 C0.66 0.99 1.32 1.98 2 3 C0.35 4.65 -1.3 6.3 -3 8 C-3 4.42424104 -1.91159393 2.94704065 0 0 Z " fill="#3FD0D0" transform="translate(82,136)"/>
</svg>
