<svg width="74" height="24" viewBox="0 0 74 24" fill="none" xmlns="http://www.w3.org/2000/svg">
<g clip-path="url(#clip0_13_8)">
<path d="M0 0 C115.5 0 231 0 350 0 C350 85.14 350 170.28 350 258 C234.5 258 119 258 0 258 C0 172.86 0 87.72 0 0 Z " fill="#B9CDE4" transform="translate(0,0)"/>
<path d="M0 0 C0.57236003 3.93231128 1.14194927 7.86501295 1.70898438 11.7980957 C1.90223474 13.13577083 2.09623922 14.47333724 2.29101562 15.81079102 C2.57099916 17.73424932 2.84803815 19.65813552 3.125 21.58203125 C3.29257813 22.73936768 3.46015625 23.8967041 3.6328125 25.08911133 C4 28 4 28 4 31 C5.27875 30.95875 6.5575 30.9175 7.875 30.875 C10.0546875 30.8046875 10.0546875 30.8046875 12 31 C12.66 31.66 13.32 32.32 14 33 C13.67884955 35.44074341 13.15006856 37.60627174 12.2734375 39.90625 C11.77008602 42.09317763 11.77008602 42.09317763 13.21484375 44.0703125 C13.78332031 44.74835938 14.35179687 45.42640625 14.9375 46.125 C18 49.82232346 18 49.82232346 18 52 C19.98 52 21.96 52 24 52 C22.25 55.875 22.25 55.875 20 57 C19.60515661 59.61475003 19.60515661 59.61475003 19.5 62.6875 C19.2102366 67.10770888 18.72080544 70.87006695 17 75 C17.804375 75.309375 18.60875 75.61875 19.4375 75.9375 C22 77 22 77 23 78 C23.04080783 79.99958364 23.04254356 82.00045254 23 84 C23.66 84 24.32 84 25 84 C25.33 84.99 25.66 85.98 26 87 C30.2002771 86.09476787 33.57966461 84.09717906 37.25 81.9375 C37.8996875 81.56044922 38.549375 81.18339844 39.21875 80.79492188 C40.81505091 79.86765885 42.40787529 78.93441544 44 78 C43.42655063 75.13275314 43.1385485 74.1385485 41 72 C40.875 68.375 40.875 68.375 41 65 C42.32 64.67 43.64 64.34 45 64 C45.66 65.98 46.32 67.96 47 70 C47.680625 69.319375 48.36125 68.63875 49.0625 67.9375 C49.51753906 67.49019531 49.97257813 67.04289062 50.44140625 66.58203125 C51.56381874 65.44274037 52.65126758 64.26862205 53.71484375 63.07421875 C55.40664826 61.22693111 57.01212839 59.52599711 59 58 C61.9375 58.0625 61.9375 58.0625 64 59 C63.50168276 62.68754757 62.89932357 64.60490662 60 67 C62.64 67.33 65.28 67.66 68 68 C68.38218767 69.65614657 68.71395102 71.32457024 69 73 C68 74 68 74 65.27734375 74.09765625 C63.62412109 74.08025391 63.62412109 74.08025391 61.9375 74.0625 C60.83277344 74.05347656 59.72804687 74.04445313 58.58984375 74.03515625 C57.73519531 74.02355469 56.88054687 74.01195313 56 74 C55.74259033 74.59546631 55.48518066 75.19093262 55.2199707 75.80444336 C53.88977772 78.19836482 52.6056171 79.42142657 50.48046875 81.12890625 C49.78759766 81.68900391 49.09472656 82.24910156 48.38085938 82.82617188 C47.65705078 83.39916016 46.93324219 83.97214844 46.1875 84.5625 C45.11918945 85.4277832 45.11918945 85.4277832 44.02929688 86.31054688 C40.48435579 89.15371424 36.99111369 91.79665433 33 94 C33.57584432 96.38564077 34.22227595 98.66682784 35 101 C35.56497396 110.48630692 34.94017113 119.27533535 31 128 C31.680625 128.165 32.36125 128.33 33.0625 128.5 C39.97817715 132.03140961 44.19434047 138.95407373 47.12109375 145.95703125 C50.2416811 156.76119814 48.23063642 170.02217555 43.55859375 180.11328125 C39.77687509 186.59748099 35.56438307 190.4662119 29 194 C28.36320312 194.38800781 27.72640625 194.77601563 27.0703125 195.17578125 C17.44427884 200.6678129 5.64352513 200.36333313 -5.125 200.375 C-6.32253906 200.39949219 -7.52007812 200.42398438 -8.75390625 200.44921875 C-21.32831525 200.49053663 -30.07505728 196.60255246 -39.09765625 188 C-47.91691674 178.76862454 -51.76135246 168.17737145 -51.484375 155.5 C-50.8452434 146.21236605 -45.99811592 136.94029785 -40 130 C-41.07899584 127.26101056 -42.17752254 124.66625762 -43.5625 122.0625 C-46.04029123 116.4561845 -45.75750981 110.02880776 -46 104 C-49.41056216 102.32062419 -52.8293694 100.65875927 -56.25 99 C-57.21808594 98.52304688 -58.18617188 98.04609375 -59.18359375 97.5546875 C-60.11816406 97.10351562 -61.05273438 96.65234375 -62.015625 96.1875 C-62.87446289 95.76855469 -63.73330078 95.34960938 -64.61816406 94.91796875 C-67.19663121 93.7602534 -67.19663121 93.7602534 -71 94 C-71.66 95.98 -72.32 97.96 -73 100 C-74.65 100 -76.3 100 -78 100 C-78.75 97.8125 -78.75 97.8125 -79 95 C-77.125 92.375 -77.125 92.375 -75 90 C-74.67 89.01 -74.34 88.02 -74 87 C-74.94875 86.71125 -75.8975 86.4225 -76.875 86.125 C-80 85 -80 85 -82 83 C-82.1875 80.4375 -82.1875 80.4375 -82 78 C-81 77 -81 77 -78.4375 76.6875 C-73.98923964 77.09188731 -70.83790938 78.81804137 -67 81 C-66.34 78.69 -65.68 76.38 -65 74 C-60.25 74.75 -60.25 74.75 -58 77 C-58 78.32 -58 79.64 -58 81 C-60 82.75 -60 82.75 -62 84 C-61.98282761 86.40625657 -61.98282761 86.40625657 -61 89 C-58.24095587 90.89229153 -58.24095587 90.89229153 -54.8125 92.25 C-53.12060547 93.00023438 -53.12060547 93.00023438 -51.39453125 93.765625 C-48.22713735 94.9174046 -45.3343572 95.5749833 -42 96 C-41.85304687 95.39671875 -41.70609375 94.7934375 -41.5546875 94.171875 C-39.49458864 86.83129285 -39.49458864 86.83129285 -35.8125 84.4375 C-34.884375 83.963125 -33.95625 83.48875 -33 83 C-33.33 81.35 -33.66 79.7 -34 78 C-33.01 77.67 -32.02 77.34 -31 77 C-31.65742188 75.88367188 -32.31484375 74.76734375 -32.9921875 73.6171875 C-35.44619903 68.71132656 -35.40096435 64.51048613 -35.125 59.125 C-35.0562944 57.44044041 -34.99597512 55.75551124 -34.9453125 54.0703125 C-34.90937988 53.33570801 -34.87344727 52.60110352 -34.83642578 51.84423828 C-34.82344881 49.74863762 -34.82344881 49.74863762 -37 48 C-36.83436568 44.77013073 -36.44722757 43.41837418 -34.0625 41.1875 C-32 40 -32 40 -30 40 C-31.46008522 32.31330798 -34.09716924 25.75368784 -37.34179688 18.66601562 C-37.69693359 17.86228516 -38.05207031 17.05855469 -38.41796875 16.23046875 C-38.74563232 15.51270264 -39.0732959 14.79493652 -39.41088867 14.05541992 C-40.11492124 11.59903775 -39.92008958 10.36492502 -39 8 C-29.62467052 -1.37532948 -12.15105539 -5.07459317 0 0 Z " fill="#4E7FB9" transform="translate(190,32)"/>
<path d="M0 0 C2.85787998 0.03154611 5.71520391 0.04103631 8.57324219 0.046875 C40.67728559 0.17873727 40.67728559 0.17873727 51.33105469 7.28125 C53.67289122 7.37726112 55.93511938 7.21595172 58.27246094 7.05859375 C58.95179688 7.13207031 59.63113281 7.20554688 60.33105469 7.28125 C67.31066267 17.75066197 63.33105469 37.29708622 63.33105469 46.28125 C-48.86894531 46.28125 -161.06894531 46.28125 -276.66894531 46.28125 C-277.66894531 17.28125 -277.66894531 17.28125 -271.66894531 10.28125 C-257.45110232 -0.86573234 -228.91528058 1.9884659 -211.66894531 3.28125 C-202.82564281 4.46552646 -194.13360358 6.45969725 -185.66894531 9.28125 C-184.01122828 9.39542904 -182.34979614 9.4593259 -180.68847656 9.4921875 C-179.6971875 9.51853271 -178.70589844 9.54487793 -177.68457031 9.57202148 C-176.62753906 9.59981689 -175.57050781 9.6276123 -174.48144531 9.65625 C-165.88123894 9.94322181 -157.85220122 10.70959653 -149.43457031 12.5234375 C-143.98959256 13.61921103 -138.51786645 14.17653215 -132.99707031 14.75390625 C-128.56142683 15.45673708 -125.93645633 16.98033386 -122.48144531 19.71875 C-114.23090428 25.60187364 -105.72459431 25.72560661 -95.85644531 25.59375 C-94.66212891 25.59697266 -93.4678125 25.60019531 -92.23730469 25.60351562 C-81.82921561 25.54119174 -71.79222507 25.16398505 -62.66894531 19.78125 C-61.61707031 19.1728125 -60.56519531 18.564375 -59.48144531 17.9375 C-58.55332031 17.3909375 -57.62519531 16.844375 -56.66894531 16.28125 C-55.52619141 15.73404297 -55.52619141 15.73404297 -54.36035156 15.17578125 C-52.05908405 13.95871368 -51.6835769 12.64872371 -50.66894531 10.28125 C-49.48144531 7.65625 -49.48144531 7.65625 -47.66894531 5.28125 C-32.56827976 0.03755611 -15.80310054 -0.17528569 0 0 Z " fill="#FDFDFE" transform="translate(280.6689453125,205.71875)"/>
<path d="M0 0 C6.4860406 1.57237348 10.14675696 7.37989777 13.8125 12.5625 C18.67746423 22.5484792 18.26728839 33.53549814 14.8125 43.9375 C11.11703618 54.21786886 6.88479926 59.16246033 -3 64 C-12.95977453 68.18657189 -21.43902811 69.20384446 -32.1875 69.25 C-33.36892578 69.270625 -34.55035156 69.29125 -35.76757812 69.3125 C-48.38911548 69.36844033 -57.07818685 66.84447445 -66.09765625 57.92578125 C-74.57021401 48.85143434 -78.42630144 40.76343703 -78.2734375 28.3203125 C-77.42571467 18.02653531 -73.39389624 9.95644954 -67 2 C-66.57589844 2.38671875 -66.15179688 2.7734375 -65.71484375 3.171875 C-61.68610483 6.74904098 -57.7852713 9.51874822 -53 12 C-52.32710937 12.3609375 -51.65421875 12.721875 -50.9609375 13.09375 C-46.41995117 14.48360333 -41.97044565 14.28776357 -37.25 14.25 C-35.82300781 14.26160156 -35.82300781 14.26160156 -34.3671875 14.2734375 C-25.59807931 14.24941255 -18.35028607 13.06764426 -10.5625 8.875 C-5.17703349 6 -5.17703349 6 -3 6 C-2.5359375 5.071875 -2.5359375 5.071875 -2.0625 4.125 C-1.375 2.75 -0.6875 1.375 0 0 Z " fill="#F6F6F6" transform="translate(219,161)"/>
<path d="M0 0 C115.5 0 231 0 350 0 C350 85.14 350 170.28 350 258 C234.5 258 119 258 0 258 C0 172.86 0 87.72 0 0 Z M2 3 C2 85.83 2 168.66 2 254 C115.52 254 229.04 254 346 254 C346 171.17 346 88.34 346 3 C232.48 3 118.96 3 2 3 Z " fill="#F0F3F6" transform="translate(0,0)"/>
<path d="M0 0 C0.57236003 3.93231128 1.14194927 7.86501295 1.70898438 11.7980957 C1.90223474 13.13577083 2.09623922 14.47333724 2.29101562 15.81079102 C2.57099916 17.73424932 2.84803815 19.65813552 3.125 21.58203125 C3.37636719 23.31803589 3.37636719 23.31803589 3.6328125 25.08911133 C4 28 4 28 4 31 C5.27875 30.95875 6.5575 30.9175 7.875 30.875 C10.0546875 30.8046875 10.0546875 30.8046875 12 31 C12.66 31.66 13.32 32.32 14 33 C13.67884955 35.44074341 13.15006856 37.60627174 12.2734375 39.90625 C11.77008602 42.09317763 11.77008602 42.09317763 13.21484375 44.0703125 C13.78332031 44.74835938 14.35179687 45.42640625 14.9375 46.125 C18 49.82232346 18 49.82232346 18 52 C19.98 52 21.96 52 24 52 C22.25 55.875 22.25 55.875 20 57 C19.68195002 59.5494014 19.68195002 59.5494014 19.625 62.5625 C19.24302448 68.38241785 18.07419609 72.06265477 15 77 C14.01 77.495 14.01 77.495 13 78 C13.32484375 76.93072266 13.32484375 76.93072266 13.65625 75.83984375 C15.24297813 70.38179283 16.37896069 65.68441034 16 60 C12.04 62.475 12.04 62.475 8 65 C8.99 66.485 8.99 66.485 10 68 C10.25 70.5625 10.25 70.5625 10 73 C9.34 73.66 8.68 74.32 8 75 C7.01 75 6.02 75 5 75 C4.773125 75.639375 4.54625 76.27875 4.3125 76.9375 C3 79 3 79 0.5625 79.625 C-0.283125 79.74875 -1.12875 79.8725 -2 80 C-2.99 80.66 -3.98 81.32 -5 82 C-9.62916638 81.6770349 -15.00337756 80.4704659 -19 78 C-19.73046875 75.89453125 -19.73046875 75.89453125 -20 74 C-21.65 73.67 -23.3 73.34 -25 73 C-25.125 70.625 -25.125 70.625 -25 68 C-24.01 67.01 -24.01 67.01 -23 66 C-20.375 66.375 -20.375 66.375 -18 67 C-17.67 68.32 -17.34 69.64 -17 71 C-15.35 71.33 -13.7 71.66 -12 72 C-11.67 72.99 -11.34 73.98 -11 75 C-9.783125 74.525625 -8.56625 74.05125 -7.3125 73.5625 C-4.22731209 72.40075962 -1.26878802 71.51074813 2 71 C1.67 70.34 1.34 69.68 1 69 C0.071875 69.226875 -0.85625 69.45375 -1.8125 69.6875 C-5 70 -5 70 -6.9375 68.8125 C-8 67 -8 67 -7.9375 65 C-6.74396924 62.45380105 -5.38530349 61.44563848 -3 60 C-2.34 60 -1.68 60 -1 60 C-1.04125 58.88625 -1.0825 57.7725 -1.125 56.625 C-1 53 -1 53 1 51 C3 51.125 3 51.125 5 52 C5.66 53.32 6.32 54.64 7 56 C9.97 55.34 12.94 54.68 16 54 C15.26766027 52.34623282 14.51347286 50.70212696 13.75 49.0625 C13.33234375 48.14597656 12.9146875 47.22945312 12.484375 46.28515625 C11.21445153 43.89117814 11.21445153 43.89117814 9.04296875 43.078125 C6.05874815 42.96400567 4.01404208 44.44844831 1.4375 45.8125 C-9.03966327 50.91675903 -19.57201427 51.72627579 -31 52 C-33.21908803 59.73974606 -32.68500972 66.90867313 -28.97265625 74.02734375 C-27.99570427 76.00871223 -27.45792106 77.84536091 -27 80 C-31.14781012 76.18849881 -34.66780529 72.62127865 -35.20483398 66.76708984 C-35.22319037 64.25503158 -35.16374218 61.76004207 -35.0625 59.25 C-35.00268454 57.54716835 -34.95147456 55.84400584 -34.91015625 54.140625 C-34.88058838 53.39329102 -34.85102051 52.64595703 -34.82055664 51.87597656 C-34.82279145 49.75283244 -34.82279145 49.75283244 -37 48 C-36.83436568 44.77013073 -36.44722757 43.41837418 -34.0625 41.1875 C-32 40 -32 40 -30 40 C-31.46008522 32.31330798 -34.09716924 25.75368784 -37.34179688 18.66601562 C-37.87450195 17.46041992 -37.87450195 17.46041992 -38.41796875 16.23046875 C-38.74563232 15.51270264 -39.0732959 14.79493652 -39.41088867 14.05541992 C-40.11492124 11.59903775 -39.92008958 10.36492502 -39 8 C-29.62467052 -1.37532948 -12.15105539 -5.07459317 0 0 Z " fill="#0E0D0D" transform="translate(190,32)"/>
<path d="M0 0 C113.52 0 227.04 0 344 0 C344 82.83 344 165.66 344 251 C230.48 251 116.96 251 0 251 C0 168.17 0 85.34 0 0 Z M2 2 C1.814375 37.92875 1.62875 73.8575 1.4375 110.875 C1.37618896 122.1760498 1.31487793 133.47709961 1.25170898 145.12060547 C1.20171394 155.3429072 1.20171394 155.3429072 1.1532135 165.56521606 C1.13174555 170.08159227 1.10715922 174.59793935 1.08058167 179.11428833 C1.04659138 184.90841379 1.01820096 190.70254334 0.99354947 196.49671578 C0.98369486 198.60239347 0.97201467 200.70806379 0.9581002 202.81371856 C0.85760148 218.25555143 1.40551443 233.54337526 2 249 C114.2 249 226.4 249 342 249 C342 167.49 342 85.98 342 2 C229.8 2 117.6 2 2 2 Z " fill="#3D5F8D" transform="translate(2,3)"/>
<path d="M0 0 C0.680625 0.309375 1.36125 0.61875 2.0625 0.9375 C1.56418276 4.62504757 0.96182357 6.54240662 -1.9375 8.9375 C0.7025 9.2675 3.3425 9.5975 6.0625 9.9375 C6.44468767 11.59364657 6.77645102 13.26207024 7.0625 14.9375 C6.0625 15.9375 6.0625 15.9375 3.33984375 16.03515625 C1.68662109 16.01775391 1.68662109 16.01775391 0 16 C-1.10472656 15.99097656 -2.20945313 15.98195313 -3.34765625 15.97265625 C-4.20230469 15.96105469 -5.05695313 15.94945313 -5.9375 15.9375 C-6.19490967 16.53296631 -6.45231934 17.12843262 -6.7175293 17.74194336 C-8.04772228 20.13586482 -9.3318829 21.35892657 -11.45703125 23.06640625 C-12.14990234 23.62650391 -12.84277344 24.18660156 -13.55664062 24.76367188 C-14.28044922 25.33666016 -15.00425781 25.90964844 -15.75 26.5 C-16.81831055 27.3652832 -16.81831055 27.3652832 -17.90820312 28.24804688 C-21.45314421 31.09121424 -24.94638631 33.73415433 -28.9375 35.9375 C-28.36165568 38.32314077 -27.71522405 40.60432784 -26.9375 42.9375 C-26.37252604 52.42380692 -26.99732887 61.21283535 -30.9375 69.9375 C-30.256875 70.1025 -29.57625 70.2675 -28.875 70.4375 C-21.95932285 73.96890961 -17.74315953 80.89157373 -14.81640625 87.89453125 C-11.6958189 98.69869814 -13.70686358 111.95967555 -18.37890625 122.05078125 C-22.16062491 128.53498099 -26.37311693 132.4037119 -32.9375 135.9375 C-33.57429688 136.32550781 -34.21109375 136.71351563 -34.8671875 137.11328125 C-44.49322116 142.6053129 -56.29397487 142.30083313 -67.0625 142.3125 C-68.26003906 142.33699219 -69.45757812 142.36148438 -70.69140625 142.38671875 C-83.26581525 142.42803663 -92.01255728 138.54005246 -101.03515625 129.9375 C-109.85441674 120.70612454 -113.69885246 110.11487145 -113.421875 97.4375 C-112.7827434 88.14986605 -107.93561592 78.87779785 -101.9375 71.9375 C-103.01649584 69.19851056 -104.11502254 66.60375762 -105.5 64 C-107.97779123 58.3936845 -107.69500981 51.96630776 -107.9375 45.9375 C-111.34806216 44.25812419 -114.7668694 42.59625927 -118.1875 40.9375 C-119.63962891 40.22207031 -119.63962891 40.22207031 -121.12109375 39.4921875 C-122.05566406 39.04101562 -122.99023438 38.58984375 -123.953125 38.125 C-124.81196289 37.70605469 -125.67080078 37.28710938 -126.55566406 36.85546875 C-129.13413121 35.6977534 -129.13413121 35.6977534 -132.9375 35.9375 C-133.5975 37.9175 -134.2575 39.8975 -134.9375 41.9375 C-136.5875 41.9375 -138.2375 41.9375 -139.9375 41.9375 C-140.6875 39.75 -140.6875 39.75 -140.9375 36.9375 C-139.0625 34.3125 -139.0625 34.3125 -136.9375 31.9375 C-136.6075 30.9475 -136.2775 29.9575 -135.9375 28.9375 C-136.88625 28.64875 -137.835 28.36 -138.8125 28.0625 C-141.9375 26.9375 -141.9375 26.9375 -143.9375 24.9375 C-144.125 22.375 -144.125 22.375 -143.9375 19.9375 C-142.9375 18.9375 -142.9375 18.9375 -140.375 18.625 C-135.92673964 19.02938731 -132.77540938 20.75554137 -128.9375 22.9375 C-127.9475 19.4725 -127.9475 19.4725 -126.9375 15.9375 C-122.1875 16.6875 -122.1875 16.6875 -119.9375 18.9375 C-119.9375 20.2575 -119.9375 21.5775 -119.9375 22.9375 C-121.9375 24.6875 -121.9375 24.6875 -123.9375 25.9375 C-123.92032761 28.34375657 -123.92032761 28.34375657 -122.9375 30.9375 C-120.17845587 32.82979153 -120.17845587 32.82979153 -116.75 34.1875 C-115.62207031 34.68765625 -114.49414062 35.1878125 -113.33203125 35.703125 C-110.13873807 36.86432252 -107.31896031 37.63812543 -103.9375 37.9375 C-102.03791919 36.62431738 -102.03791919 36.62431738 -100.9375 34.9375 C-101.2675 36.9175 -101.5975 38.8975 -101.9375 40.9375 C-101.07125 41.185 -100.205 41.4325 -99.3125 41.6875 C-95.75447746 43.00528613 -93.0148845 44.73936822 -89.9375 46.9375 C-90.2675 48.5875 -90.5975 50.2375 -90.9375 51.9375 C-96.21499285 51.39898032 -100.19395564 50.16406164 -104.9375 47.9375 C-104.05067488 61.51135389 -100.51952429 69.25423871 -90.22265625 78.46484375 C-83.34900747 82.89452852 -77.08986874 83.3977763 -69.125 83.25 C-68.1561084 83.24162109 -67.1872168 83.23324219 -66.18896484 83.22460938 C-59.63211447 83.11435462 -53.29815577 82.64179054 -46.9375 80.9375 C-46.9375 78.6275 -46.9375 76.3175 -46.9375 73.9375 C-46.6075 73.9375 -46.2775 73.9375 -45.9375 73.9375 C-45.9375 75.9175 -45.9375 77.8975 -45.9375 79.9375 C-37.36905465 73.88551554 -32.42231108 68.37626819 -29.9375 57.9375 C-29.3516924 51.25786455 -29.04960859 45.10603606 -31.9375 38.9375 C-32.989375 39.618125 -34.04125 40.29875 -35.125 41 C-37.84077009 42.5731595 -38.64227974 42.96262513 -41.875 42.6875 C-42.8959375 42.31625 -42.8959375 42.31625 -43.9375 41.9375 C-44.6875 40.1875 -44.6875 40.1875 -44.9375 37.9375 C-43.25 35.9375 -43.25 35.9375 -40.9375 33.9375 C-40.339375 33.256875 -39.74125 32.57625 -39.125 31.875 C-36.90661434 29.91014413 -34.89043123 28.99616359 -32.15234375 27.9296875 C-27.19431017 25.70862837 -22.59200244 22.72714432 -17.9375 19.9375 C-18.51094937 17.07025314 -18.7989515 16.0760485 -20.9375 13.9375 C-21.0625 10.3125 -21.0625 10.3125 -20.9375 6.9375 C-19.6175 6.6075 -18.2975 6.2775 -16.9375 5.9375 C-15.9475 8.9075 -15.9475 8.9075 -14.9375 11.9375 C-14.256875 11.256875 -13.57625 10.57625 -12.875 9.875 C-12.41996094 9.42769531 -11.96492187 8.98039062 -11.49609375 8.51953125 C-10.37368126 7.38024037 -9.28623242 6.20612205 -8.22265625 5.01171875 C-3.56333124 -0.07581556 -3.56333124 -0.07581556 0 0 Z M-32.9375 70.9375 C-35.33570305 73.57434747 -35.33570305 73.57434747 -35.9375 76.9375 C-36.65164062 77.21464844 -37.36578125 77.49179688 -38.1015625 77.77734375 C-41.82012172 79.29857252 -45.41012325 81.06181417 -49.0234375 82.81640625 C-55.67295927 85.37460028 -62.77826511 85.17841688 -69.8125 85.25 C-70.75480469 85.27900391 -71.69710937 85.30800781 -72.66796875 85.33789062 C-80.42478808 85.4076269 -86.25634668 83.74110284 -92.4609375 79.015625 C-93.07195312 78.41234375 -93.68296875 77.8090625 -94.3125 77.1875 C-97.0570957 74.3055262 -97.0570957 74.3055262 -100.9375 73.9375 C-108.03076696 81.2577515 -111.08359065 92.24157224 -111.375 102.1875 C-110.82968939 114.79574233 -104.48516085 123.95025614 -95.375 132.4375 C-86.38910899 140.00049604 -77.13134406 140.13871188 -65.8125 140.1875 C-64.63945312 140.208125 -63.46640625 140.22875 -62.2578125 140.25 C-49.66262564 140.30597861 -35.28758717 137.47069293 -25.875 128.3125 C-25.235625 127.52875 -24.59625 126.745 -23.9375 125.9375 C-23.45796875 125.3703125 -22.9784375 124.803125 -22.484375 124.21875 C-16.36159404 115.18919424 -14.72873714 103.54775175 -15.9375 92.9375 C-17.73792443 84.11246878 -23.66776522 76.0593586 -30.9375 70.9375 C-31.5975 70.9375 -32.2575 70.9375 -32.9375 70.9375 Z " fill="#1C1D1E" transform="translate(251.9375,90.0625)"/>
<path d="M0 0 C0.62261719 0.31839844 1.24523437 0.63679688 1.88671875 0.96484375 C6.18877449 2.39526379 10.30525357 2.42651979 14.8125 2.5625 C18.21011519 2.68158122 21.60480069 2.82500022 25 3 C25.76723389 3.02868164 26.53446777 3.05736328 27.32495117 3.08691406 C29.46875 3.23828125 29.46875 3.23828125 33 4 C34.69921875 6.0390625 34.69921875 6.0390625 35.6875 8.625 C37.10271459 12.03306778 38.36788684 14.61627453 40.8125 17.375 C44.29886842 21.96520293 43.52236062 27.52267583 43 33 C42.79761719 33.91523438 42.59523437 34.83046875 42.38671875 35.7734375 C42.25910156 36.50820312 42.13148438 37.24296875 42 38 C42.97850195 39.02104551 43.97980427 40.0206121 45 41 C45.1875 43.6875 45.1875 43.6875 45 46 C45.66 46 46.32 46 47 46 C47 43.69 47 41.38 47 39 C47.495 40.98 47.495 40.98 48 43 C48.66 43 49.32 43 50 43 C50 41.68 50 40.36 50 39 C50.66 39 51.32 39 52 39 C52 41.31 52 43.62 52 46 C44.89080984 48.53004666 38.52856558 49.49549315 31 49.4375 C29.61941406 49.4674707 29.61941406 49.4674707 28.2109375 49.49804688 C20.28598414 49.49246592 13.62480712 47.71988348 7.23046875 42.921875 C-2.08466732 33.018977 -5.23686666 26.55403644 -5 13 C-4.11248047 13.32484375 -4.11248047 13.32484375 -3.20703125 13.65625 C2.73660902 15.77760794 2.73660902 15.77760794 9 16 C8.89308764 13.58263164 8.89308764 13.58263164 8 11 C5.72210042 9.31742177 5.72210042 9.31742177 2.9375 8.1875 C2.01839844 7.76855469 1.09929687 7.34960938 0.15234375 6.91796875 C-0.55792969 6.61503906 -1.26820313 6.31210938 -2 6 C-1.125 1.125 -1.125 1.125 0 0 Z " fill="#F4F4F4" transform="translate(152,125)"/>
<path d="M0 0 C2.41242978 1.20621489 3.23952756 2.49624089 4.609375 4.8046875 C5.03734375 5.50335938 5.4653125 6.20203125 5.90625 6.921875 C6.859375 8.9296875 6.859375 8.9296875 6.859375 11.9296875 C3.559375 12.9196875 0.259375 13.9096875 -3.140625 14.9296875 C-3.800625 13.2796875 -4.460625 11.6296875 -5.140625 9.9296875 C-6.460625 10.2596875 -7.780625 10.5896875 -9.140625 10.9296875 C-9.181875 12.0021875 -9.223125 13.0746875 -9.265625 14.1796875 C-10.140625 17.9296875 -10.140625 17.9296875 -13.203125 20.3671875 C-14.1725 20.8828125 -15.141875 21.3984375 -16.140625 21.9296875 C-15.810625 23.2496875 -15.480625 24.5696875 -15.140625 25.9296875 C-11.76245075 26.77423106 -9.46597257 27.03813669 -6.140625 25.9296875 C-6.635625 27.4146875 -6.635625 27.4146875 -7.140625 28.9296875 C-9.328125 29.9921875 -9.328125 29.9921875 -12.140625 30.9296875 C-13.1925 31.3009375 -14.244375 31.6721875 -15.328125 32.0546875 C-18.140625 32.9296875 -18.140625 32.9296875 -20.140625 32.9296875 C-20.800625 31.9396875 -21.460625 30.9496875 -22.140625 29.9296875 C-22.800625 29.7853125 -23.460625 29.6409375 -24.140625 29.4921875 C-26.140625 28.9296875 -26.140625 28.9296875 -27.390625 26.8671875 C-27.638125 26.2278125 -27.885625 25.5884375 -28.140625 24.9296875 C-29.790625 25.2596875 -31.440625 25.5896875 -33.140625 25.9296875 C-33.140625 27.5796875 -33.140625 29.2296875 -33.140625 30.9296875 C-32.521875 31.0121875 -31.903125 31.0946875 -31.265625 31.1796875 C-30.564375 31.4271875 -29.863125 31.6746875 -29.140625 31.9296875 C-28.8725 32.5690625 -28.604375 33.2084375 -28.328125 33.8671875 C-27.22544013 36.29333268 -27.22544013 36.29333268 -23.890625 37.1171875 C-22.653125 37.3853125 -21.415625 37.6534375 -20.140625 37.9296875 C-19.068125 38.1771875 -17.995625 38.4246875 -16.890625 38.6796875 C-13.92509666 39.23937871 -13.92509666 39.23937871 -11.140625 36.9296875 C-10.295 36.7853125 -9.449375 36.6409375 -8.578125 36.4921875 C-5.78635825 36.14146799 -5.78635825 36.14146799 -4.140625 32.9296875 C-2.015625 31.7421875 -2.015625 31.7421875 -0.140625 30.9296875 C0.11007413 28.55539454 0.11007413 28.55539454 -0.140625 25.9296875 C-1.130625 24.9396875 -2.120625 23.9496875 -3.140625 22.9296875 C2.304375 19.9596875 2.304375 19.9596875 7.859375 16.9296875 C8.44992013 24.90204676 6.29040688 31.28313968 1.859375 37.9296875 C-8.06446543 43.56401747 -21.64268834 41.5433494 -32.19140625 39.0390625 C-35.90029118 37.64393228 -37.54816197 36.20630403 -39.38671875 32.73828125 C-39.63550781 32.14144531 -39.88429687 31.54460937 -40.140625 30.9296875 C-40.57375 30.0221875 -41.006875 29.1146875 -41.453125 28.1796875 C-42.86307828 21.51445383 -42.99203115 15.18693989 -40.140625 8.9296875 C-39.0990625 8.91550781 -38.0575 8.90132812 -36.984375 8.88671875 C-25.85512655 8.57539281 -14.04815837 7.34172471 -4.4375 1.203125 C-2.140625 -0.0703125 -2.140625 -0.0703125 0 0 Z " fill="#F0F0F0" transform="translate(199.140625,74.0703125)"/>
<path d="M0 0 C2 0.125 2 0.125 4 1 C5.125 3.0546875 5.125 3.0546875 6 5 C7.64696604 4.5247412 9.29254728 4.04468109 10.9375 3.5625 C11.85402344 3.29566406 12.77054688 3.02882813 13.71484375 2.75390625 C15.9402493 2.20973949 15.9402493 2.20973949 17 1 C18.99958364 0.95919217 21.00045254 0.95745644 23 1 C21.25 4.875 21.25 4.875 19 6 C18.68195002 8.5494014 18.68195002 8.5494014 18.625 11.5625 C18.24302448 17.38241785 17.07419609 21.06265477 14 26 C13.01 26.495 13.01 26.495 12 27 C12.2165625 26.28714844 12.433125 25.57429688 12.65625 24.83984375 C14.24297813 19.38179283 15.37896069 14.68441034 15 9 C12.36 10.65 9.72 12.3 7 14 C7.66 14.99 8.32 15.98 9 17 C9.25 19.5625 9.25 19.5625 9 22 C8.34 22.66 7.68 23.32 7 24 C6.01 24 5.02 24 4 24 C3.773125 24.639375 3.54625 25.27875 3.3125 25.9375 C2 28 2 28 -0.4375 28.625 C-1.283125 28.74875 -2.12875 28.8725 -3 29 C-3.99 29.66 -4.98 30.32 -6 31 C-10.62916638 30.6770349 -16.00337756 29.4704659 -20 27 C-20.73046875 24.89453125 -20.73046875 24.89453125 -21 23 C-22.65 22.67 -24.3 22.34 -26 22 C-26.125 19.625 -26.125 19.625 -26 17 C-25.34 16.34 -24.68 15.68 -24 15 C-21.375 15.375 -21.375 15.375 -19 16 C-18.67 17.32 -18.34 18.64 -18 20 C-16.35 20.33 -14.7 20.66 -13 21 C-12.67 21.99 -12.34 22.98 -12 24 C-10.783125 23.525625 -9.56625 23.05125 -8.3125 22.5625 C-5.22731209 21.40075962 -2.26878802 20.51074813 1 20 C0.67 19.34 0.34 18.68 0 18 C-0.928125 18.226875 -1.85625 18.45375 -2.8125 18.6875 C-6 19 -6 19 -7.9375 17.8125 C-9 16 -9 16 -8.9375 14 C-7.74396924 11.45380105 -6.38530349 10.44563848 -4 9 C-3.34 9 -2.68 9 -2 9 C-2.04125 7.88625 -2.0825 6.7725 -2.125 5.625 C-2 2 -2 2 0 0 Z " fill="#554A2C" transform="translate(191,83)"/>
<path d="M0 0 C4.75 0.75 4.75 0.75 7 3 C7 4.32 7 5.64 7 7 C5 8.75 5 8.75 3 10 C3.01717239 12.40625657 3.01717239 12.40625657 4 15 C6.75904413 16.89229153 6.75904413 16.89229153 10.1875 18.25 C11.87939453 19.00023437 11.87939453 19.00023437 13.60546875 19.765625 C16.79876193 20.92682252 19.61853969 21.70062543 23 22 C24.89958081 20.68681738 24.89958081 20.68681738 26 19 C25.67 20.98 25.34 22.96 25 25 C25.86625 25.2475 26.7325 25.495 27.625 25.75 C31.18302254 27.06778613 33.9226155 28.80186822 37 31 C36.67 32.65 36.34 34.3 36 36 C22.45193816 34.55871683 22.45193816 34.55871683 18.64331055 30.58422852 C15.54245218 27.59485547 11.42742965 26.12229155 7.5625 24.3125 C6.70333984 23.89677734 5.84417969 23.48105469 4.95898438 23.05273438 C4.12818359 22.66021484 3.29738281 22.26769531 2.44140625 21.86328125 C1.68545166 21.50532471 0.92949707 21.14736816 0.15063477 20.77856445 C-2.24565054 19.77306857 -2.24565054 19.77306857 -6 20 C-6.66 21.98 -7.32 23.96 -8 26 C-9.65 26 -11.3 26 -13 26 C-13.75 23.8125 -13.75 23.8125 -14 21 C-12.125 18.375 -12.125 18.375 -10 16 C-9.67 15.01 -9.34 14.02 -9 13 C-9.94875 12.71125 -10.8975 12.4225 -11.875 12.125 C-15 11 -15 11 -17 9 C-17.1875 6.4375 -17.1875 6.4375 -17 4 C-16 3 -16 3 -13.4375 2.6875 C-8.98923964 3.09188731 -5.83790938 4.81804137 -2 7 C-1.34 4.69 -0.68 2.38 0 0 Z " fill="#504731" transform="translate(125,106)"/>
<path d="M0 0 C1.0209375 0.4640625 1.0209375 0.4640625 2.0625 0.9375 C1.56418276 4.62504757 0.96182357 6.54240662 -1.9375 8.9375 C0.7025 9.2675 3.3425 9.5975 6.0625 9.9375 C6.44468767 11.59364657 6.77645102 13.26207024 7.0625 14.9375 C6.0625 15.9375 6.0625 15.9375 3.33984375 16.03515625 C2.23769531 16.02355469 1.13554687 16.01195313 0 16 C-1.65708984 15.98646484 -1.65708984 15.98646484 -3.34765625 15.97265625 C-4.20230469 15.96105469 -5.05695313 15.94945313 -5.9375 15.9375 C-6.3236145 16.83069946 -6.3236145 16.83069946 -6.7175293 17.74194336 C-8.04772228 20.13586482 -9.3318829 21.35892657 -11.45703125 23.06640625 C-12.14990234 23.62650391 -12.84277344 24.18660156 -13.55664062 24.76367188 C-14.28044922 25.33666016 -15.00425781 25.90964844 -15.75 26.5 C-16.46220703 27.07685547 -17.17441406 27.65371094 -17.90820312 28.24804688 C-21.46149381 31.09791091 -24.97592299 33.66947851 -28.9375 35.9375 C-29.39125 36.411875 -29.845 36.88625 -30.3125 37.375 C-32.84706262 39.81207944 -35.67210622 41.62276815 -38.9375 42.9375 C-41.875 42.6875 -41.875 42.6875 -43.9375 41.9375 C-44.6875 40.1875 -44.6875 40.1875 -44.9375 37.9375 C-43.25 35.9375 -43.25 35.9375 -40.9375 33.9375 C-40.0403125 32.9165625 -40.0403125 32.9165625 -39.125 31.875 C-36.90661434 29.91014413 -34.89043123 28.99616359 -32.15234375 27.9296875 C-27.19431017 25.70862837 -22.59200244 22.72714432 -17.9375 19.9375 C-18.51094937 17.07025314 -18.7989515 16.0760485 -20.9375 13.9375 C-21.0625 10.3125 -21.0625 10.3125 -20.9375 6.9375 C-19.6175 6.6075 -18.2975 6.2775 -16.9375 5.9375 C-16.2775 7.9175 -15.6175 9.8975 -14.9375 11.9375 C-13.9165625 10.9165625 -13.9165625 10.9165625 -12.875 9.875 C-12.41996094 9.42769531 -11.96492188 8.98039062 -11.49609375 8.51953125 C-10.37368126 7.38024037 -9.28623242 6.20612205 -8.22265625 5.01171875 C-3.56333124 -0.07581556 -3.56333124 -0.07581556 0 0 Z " fill="#4D452E" transform="translate(251.9375,90.0625)"/>
<path d="M0 0 C3.0351598 4.16958835 4.42238945 8.82709762 6.03515625 13.671875 C6.76700134 16.15644337 6.76700134 16.15644337 9 17 C9.05451714 19.04136395 9.09302485 21.08315856 9.125 23.125 C9.14820313 24.26195312 9.17140625 25.39890625 9.1953125 26.5703125 C8.99375044 30.10974226 8.4485145 32.76722261 7 36 C3.90521121 37.03159626 2.47368607 36.97482862 -0.6875 36.5625 C-1.49574219 36.46066406 -2.30398437 36.35882813 -3.13671875 36.25390625 C-3.75160156 36.17011719 -4.36648437 36.08632812 -5 36 C-4.84337891 34.38544922 -4.84337891 34.38544922 -4.68359375 32.73828125 C-3.99353695 22.2962218 -5.35854387 16.68489686 -12.12890625 8.63671875 C-14 6 -14 6 -13.94140625 3.72265625 C-13 2 -13 2 -10.375 0.75 C-6.67665726 -0.07185394 -3.76794635 -0.49765329 0 0 Z " fill="#4E80BB" transform="translate(201,126)"/>
<path d="M0 0 C0.66 0.33 1.32 0.66 2 1 C-2.75 5 -2.75 5 -5 5 C-5 6.65 -5 8.3 -5 10 C-2.39517051 10.94721072 -0.69325299 11.30222393 1.890625 10.17578125 C3.62582873 9.17063275 5.31640423 8.0893855 7 7 C11.30558074 14.59202136 11.19400727 22.17090395 9.12109375 30.5546875 C6.80032952 37.18763082 3.9759569 42.98929067 -2 47 C-4.21484375 47.671875 -4.21484375 47.671875 -6 48 C-6.1875 45.1875 -6.1875 45.1875 -6 42 C-4.5625 40.375 -4.5625 40.375 -3 39 C-1.7230506 35.39197519 -1.79787658 31.73171887 -1.75 27.9375 C-1.72421875 26.70902344 -1.6984375 25.48054688 -1.671875 24.21484375 C-2.0359392 20.64788146 -2.39496567 20.20425982 -5 18 C-6.203125 15.66015625 -6.203125 15.66015625 -7.25 13.0625 C-7.60578125 12.20785156 -7.9615625 11.35320312 -8.328125 10.47265625 C-9.06672724 7.75442825 -9.19076267 6.54464352 -8 4 C-6.22265625 2.69921875 -6.22265625 2.69921875 -4.0625 1.6875 C-3.35222656 1.34074219 -2.64195312 0.99398437 -1.91015625 0.63671875 C-1.27980469 0.42660156 -0.64945313 0.21648437 0 0 Z " fill="#F6F7F6" transform="translate(213,121)"/>
<path d="M0 0 C0.99 0.33 1.98 0.66 3 1 C2.61328125 1.49886719 2.2265625 1.99773437 1.828125 2.51171875 C-5.20956174 12.21466804 -8.33284236 23.03816164 -7 35 C-5.24383952 45.31531156 2.14426954 54.14937189 10.0546875 60.6328125 C18.33750995 66.45407325 27.38682664 66.20802511 37.125 66.25 C38.29804688 66.270625 39.47109375 66.29125 40.6796875 66.3125 C54.00912451 66.37174194 66.39319594 63.02205321 77 54.625 C79.13016666 51.82915626 80.64791342 49.05520213 82.10546875 45.8671875 C83 44 83 44 85 41 C85.98898522 44.14315417 86.16832518 45.59566643 84.8828125 48.68359375 C80.71290263 55.21645254 76.81946056 59.32889667 70 63 C69.04480469 63.58201172 69.04480469 63.58201172 68.0703125 64.17578125 C58.44427884 69.6678129 46.64352513 69.36333313 35.875 69.375 C34.67746094 69.39949219 33.47992188 69.42398438 32.24609375 69.44921875 C19.67168475 69.49053663 10.92494272 65.60255246 1.90234375 57 C-6.91739967 47.76811903 -10.75556098 37.18060187 -10.48828125 24.50390625 C-9.89479694 15.85410793 -5.45093283 6.641752 0 0 Z " fill="#191A1B" transform="translate(149,163)"/>
<path d="M0 0 C1.73866137 3.07561037 2.40456503 5.70841747 2.8515625 9.203125 C3.04492188 10.67265625 3.04492188 10.67265625 3.2421875 12.171875 C3.36851562 13.18765625 3.49484375 14.2034375 3.625 15.25 C3.7590625 16.28125 3.893125 17.3125 4.03125 18.375 C4.36062706 20.91590878 4.6832964 23.45748574 5 26 C6.918125 25.938125 6.918125 25.938125 8.875 25.875 C11.0546875 25.8046875 11.0546875 25.8046875 13 26 C13.66 26.66 14.32 27.32 15 28 C14.67839354 30.4442091 14.14837851 32.61120069 13.26953125 34.9140625 C12.76383794 37.09257877 12.76383794 37.09257877 14.25 39 C14.8275 39.66 15.405 40.32 16 41 C17.75 43 17.75 43 19 45 C18.67 46.32 18.34 47.64 18 49 C14.535 43.555 14.535 43.555 11 38 C6.22229094 39.19442727 1.75319624 40.99110722 -2.8046875 42.828125 C-7.57037417 44.67641413 -11.90523896 45.54307076 -17 46 C-13.90347804 42.72653393 -11.04980088 40.02490044 -7 38 C-6.01 38 -5.02 38 -4 38 C-4 37.01 -4 36.02 -4 35 C-1.36 33.68 1.28 32.36 4 31 C3.505 28.525 3.505 28.525 3 26 C0.69 26.33 -1.62 26.66 -4 27 C-4 25.02 -4 23.04 -4 21 C-2.02 21 -0.04 21 2 21 C1.39990913 15.71915152 1.39990913 15.71915152 0.4375 10.5 C-0.17992836 6.97183795 -0.06067913 3.58006894 0 0 Z " fill="#141414" transform="translate(189,37)"/>
<path d="M0 0 C2.66390519 0.27519682 3.72874127 0.68162792 5.484375 2.7421875 C5.90203125 3.44601563 6.3196875 4.14984375 6.75 4.875 C7.17796875 5.57367188 7.6059375 6.27234375 8.046875 6.9921875 C9 9 9 9 9 12 C4.05 13.485 4.05 13.485 -1 15 C-1.66 13.35 -2.32 11.7 -3 10 C-4.32 10.33 -5.64 10.66 -7 11 C-7.04125 12.0725 -7.0825 13.145 -7.125 14.25 C-8 18 -8 18 -10.875 20.3125 C-11.90625 20.869375 -12.9375 21.42625 -14 22 C-14.99 22.66 -15.98 23.32 -17 24 C-17.29003906 22.75283203 -17.29003906 22.75283203 -17.5859375 21.48046875 C-17.84632813 20.39378906 -18.10671875 19.30710937 -18.375 18.1875 C-18.63023437 17.10855469 -18.88546875 16.02960938 -19.1484375 14.91796875 C-19.88732881 11.84466657 -19.88732881 11.84466657 -22 9 C-20.7625 8.608125 -19.525 8.21625 -18.25 7.8125 C-8.44286015 5.06518344 -8.44286015 5.06518344 0 0 Z " fill="#F4F5F4" transform="translate(197,74)"/>
<path d="M0 0 C0.86882812 0.00644531 1.73765625 0.01289062 2.6328125 0.01953125 C4.875 0.1875 4.875 0.1875 6.875 1.1875 C7.74938599 2.90741436 8.55160661 4.66445248 9.3125 6.4375 C11.88274699 12.75028637 11.88274699 12.75028637 15.875 18.1875 C16.40109568 25.73494952 16.69060518 32.51019093 12.875 39.1875 C12.215 39.1875 11.555 39.1875 10.875 39.1875 C11.37 42.6525 11.37 42.6525 11.875 46.1875 C9.895 46.6825 9.895 46.6825 7.875 47.1875 C7.875 44.8775 7.875 42.5675 7.875 40.1875 C7.215 40.1875 6.555 40.1875 5.875 40.1875 C5.875 41.5075 5.875 42.8275 5.875 44.1875 C5.215 44.1875 4.555 44.1875 3.875 44.1875 C3.545 45.1775 3.215 46.1675 2.875 47.1875 C2.215 47.1875 1.555 47.1875 0.875 47.1875 C0.38 43.7225 0.38 43.7225 -0.125 40.1875 C-1.115 39.8575 -2.105 39.5275 -3.125 39.1875 C-2.97289062 38.47464844 -2.82078125 37.76179688 -2.6640625 37.02734375 C-1.17989854 29.20859591 -0.99038472 23.33084779 -5.34619141 16.49389648 C-6.58716524 14.68029307 -7.86588235 12.89975696 -9.15625 11.12109375 C-11.125 8.1875 -11.125 8.1875 -11.125 5.1875 C-19.375 4.8575 -27.625 4.5275 -36.125 4.1875 C-36.125 3.8575 -36.125 3.5275 -36.125 3.1875 C-34.92955566 3.157771 -34.92955566 3.157771 -33.70996094 3.12744141 C-30.09797528 3.03216752 -26.48656601 2.92249693 -22.875 2.8125 C-20.99361328 2.76609375 -20.99361328 2.76609375 -19.07421875 2.71875 C-17.86894531 2.68007812 -16.66367188 2.64140625 -15.421875 2.6015625 C-14.31166992 2.5701416 -13.20146484 2.5387207 -12.05761719 2.50634766 C-7.5936077 2.02099997 -4.63673606 -0.07612552 0 0 Z M-8.125 4.1875 C-9.24006748 5.91625741 -9.24006748 5.91625741 -9.125 8.1875 C-7.21626268 10.95373643 -7.21626268 10.95373643 -4.6875 13.875 C1.27690097 21.53548181 0.77814794 28.87727126 -0.125 38.1875 C1.47726955 38.40995393 3.08196767 38.61496669 4.6875 38.8125 C5.58082031 38.92851562 6.47414063 39.04453125 7.39453125 39.1640625 C10.13190391 39.42250743 10.13190391 39.42250743 12.875 37.1875 C14.0341872 33.37296539 14.07027805 29.5298413 14.125 25.5625 C14.15078125 24.43585938 14.1765625 23.30921875 14.203125 22.1484375 C13.82694466 18.7538578 13.30901884 18.36809799 10.875 16.1875 C9.77734375 13.59375 9.77734375 13.59375 8.8125 10.6875 C7.72064876 7.42510111 6.79847401 5.07271102 4.875 2.1875 C0.14870099 1.73304817 -3.81947177 2.13724846 -8.125 4.1875 Z " fill="#536D8F" transform="translate(196.125,123.8125)"/>
<path d="M0 0 C0.99 0 1.98 0 3 0 C3.33 0.66 3.66 1.32 4 2 C5.65 2 7.3 2 9 2 C9.66 3.32 10.32 4.64 11 6 C10.34 6.66 9.68 7.32 9 8 C8.3574765 10.06874034 8.3574765 10.06874034 8 12 C8.66 12 9.32 12 10 12 C9.67 13.98 9.34 15.96 9 18 C8.01 18 7.02 18 6 18 C5.67 16.68 5.34 15.36 5 14 C5.99 14 6.98 14 8 14 C7.34 13.34 6.68 12.68 6 12 C5.67 11.67 5.34 11.34 5 11 C4.67 12.98 4.34 14.96 4 17 C3.34 17 2.68 17 2 17 C2 18.32 2 19.64 2 21 C1.01 20.67 0.02 20.34 -1 20 C-0.67 19.34 -0.34 18.68 0 18 C-0.66 18.66 -1.32 19.32 -2 20 C-2 20.66 -2 21.32 -2 22 C-2.99 21.67 -3.98 21.34 -5 21 C-5 19.35 -5 17.7 -5 16 C-6.98 16.33 -8.96 16.66 -11 17 C-11.66 15.35 -12.32 13.7 -13 12 C-11.68 11.34 -10.36 10.68 -9 10 C-8.34 10.66 -7.68 11.32 -7 12 C-6.34 11.34 -5.68 10.68 -5 10 C-2.375 10.375 -2.375 10.375 0 11 C0 10.01 0 9.02 0 8 C-0.763125 8.165 -1.52625 8.33 -2.3125 8.5 C-6.34475993 9.25018789 -8.45973372 8.95325036 -12 7 C-11.8125 5.125 -11.8125 5.125 -11 3 C-8.4375 1.75 -8.4375 1.75 -6 1 C-5.67 1.99 -5.34 2.98 -5 4 C-5.66 4.66 -6.32 5.32 -7 6 C-5.02463255 5.65213292 -5.02463255 5.65213292 -3 5 C-2.67 4.34 -2.34 3.68 -2 3 C-1.34 2.67 -0.68 2.34 0 2 C0 1.34 0 0.68 0 0 Z " fill="#A6B0B8" transform="translate(30,90)"/>
<path d="M0 0 C0.33 0.99 0.66 1.98 1 3 C12.6469527 3.33384495 12.6469527 3.33384495 24 1 C24 1.66 24 2.32 24 3 C22.3603125 3.61875 22.3603125 3.61875 20.6875 4.25 C17.42875666 5.6269338 15.97887604 7.03168593 14 10 C10.68455701 11.10514766 7.79589889 11.32107631 4.3125 11.5625 C3.13300781 11.64628906 1.95351562 11.73007813 0.73828125 11.81640625 C-0.16535156 11.87699219 -1.06898438 11.93757813 -2 12 C-4.21908803 19.73974606 -3.68500972 26.90867313 0.02734375 34.02734375 C1.00429573 36.00871223 1.54207894 37.84536091 2 40 C-2.14781012 36.18849881 -5.66780529 32.62127865 -6.20483398 26.76708984 C-6.22319037 24.25503158 -6.16374218 21.76004207 -6.0625 19.25 C-6.00268454 17.54716835 -5.95147456 15.84400584 -5.91015625 14.140625 C-5.86580444 13.01962402 -5.86580444 13.01962402 -5.82055664 11.87597656 C-5.82279145 9.75283244 -5.82279145 9.75283244 -8 8 C-7.83652072 4.81215405 -7.44027683 3.42560094 -5.125 1.1875 C-3 0 -3 0 0 0 Z " fill="#060506" transform="translate(161,72)"/>
<path d="M0 0 C0.66 0.33 1.32 0.66 2 1 C2.33 1.99 2.66 2.98 3 4 C5.97 4.495 5.97 4.495 9 5 C9 5.99 9 6.98 9 8 C9.66 8 10.32 8 11 8 C10.4740625 8.804375 10.4740625 8.804375 9.9375 9.625 C8.71075751 12.73274763 9.27143569 14.79431703 10 18 C9.34 18.33 8.68 18.66 8 19 C8 18.34 8 17.68 8 17 C7.34 17 6.68 17 6 17 C6 14.36 6 11.72 6 9 C5.01 9 4.02 9 3 9 C3.37125 9.721875 3.7425 10.44375 4.125 11.1875 C5.18974141 14.60988311 4.60339848 15.88228073 3 19 C4.32 18.67 5.64 18.34 7 18 C7.33 18.99 7.66 19.98 8 21 C6.02 21 4.04 21 2 21 C1.67 20.01 1.34 19.02 1 18 C-0.85744207 17.38932856 -0.85744207 17.38932856 -3 17 C-4.3479743 16.36345658 -5.68596724 15.70394612 -7 15 C-7.66 15.66 -8.32 16.32 -9 17 C-9.66 17 -10.32 17 -11 17 C-10.67 17.99 -10.34 18.98 -10 20 C-10.66 20 -11.32 20 -12 20 C-13.15837626 15.94568308 -12.83691257 13.78187881 -11 10 C-11.66 9.34 -12.32 8.68 -13 8 C-12.67 7.01 -12.34 6.02 -12 5 C-4.57142857 4.85714286 -4.57142857 4.85714286 -1 6 C-1.33 4.35 -1.66 2.7 -2 1 C-1.34 0.67 -0.68 0.34 0 0 Z " fill="#A5AFB9" transform="translate(67,29)"/>
<path d="M0 0 C0.99 0 1.98 0 3 0 C2.6875 1.875 2.6875 1.875 2 4 C1.01 4.66 0.02 5.32 -1 6 C-1.33 7.32 -1.66 8.64 -2 10 C1.3 10 4.6 10 8 10 C8 10.66 8 11.32 8 12 C1.565 12.495 1.565 12.495 -5 13 C-5.33 14.32 -5.66 15.64 -6 17 C-7.80664062 18.73583984 -7.80664062 18.73583984 -10.15625 20.4609375 C-11.01476562 21.09773438 -11.87328125 21.73453125 -12.7578125 22.390625 C-13.66273438 23.04546875 -14.56765625 23.7003125 -15.5 24.375 C-16.37398437 25.02210937 -17.24796875 25.66921875 -18.1484375 26.3359375 C-20.74842245 28.24927954 -23.36829698 30.13057652 -26 32 C-26.83273438 32.59844727 -27.66546875 33.19689453 -28.5234375 33.81347656 C-29.30976563 34.36229492 -30.09609375 34.91111328 -30.90625 35.4765625 C-31.60041016 35.96463379 -32.29457031 36.45270508 -33.00976562 36.95556641 C-35 38 -35 38 -39 38 C-38.6459539 35.35417544 -38.34660968 34.27604101 -36.22167969 32.58374023 C-35.08327637 31.95254272 -35.08327637 31.95254272 -33.921875 31.30859375 C-33.09042969 30.83873047 -32.25898438 30.36886719 -31.40234375 29.88476562 C-30.52707031 29.40716797 -29.65179688 28.92957031 -28.75 28.4375 C-27.03641423 27.47794335 -25.32287133 26.51831011 -23.609375 25.55859375 C-21.04921416 24.13348465 -18.48449325 22.71976245 -15.91015625 21.3203125 C-15.27980469 20.88460937 -14.64945313 20.44890625 -14 20 C-13.58320703 17.45769153 -13.58320703 17.45769153 -14 15 C-14 14.34 -14 13.68 -14 13 C-14.99 12.34 -15.98 11.68 -17 11 C-16.67 9.35 -16.34 7.7 -16 6 C-15.6596875 6.9590625 -15.6596875 6.9590625 -15.3125 7.9375 C-14.15808353 10.2772507 -14.15808353 10.2772507 -11.41796875 10.62890625 C-10.62003906 10.75136719 -9.82210937 10.87382813 -9 11 C-8.38511719 10.2059375 -7.77023438 9.411875 -7.13671875 8.59375 C-6.32847656 7.5728125 -5.52023438 6.551875 -4.6875 5.5 C-3.48673828 3.96859375 -3.48673828 3.96859375 -2.26171875 2.40625 C-1.51535156 1.6121875 -0.76898438 0.818125 0 0 Z " fill="#906433" transform="translate(249,92)"/>
<path d="M0 0 C1.65 0.33 3.3 0.66 5 1 C5.33 2.32 5.66 3.64 6 5 C8.31 5 10.62 5 13 5 C13.33 6.65 13.66 8.3 14 10 C13.01 10.495 13.01 10.495 12 11 C11.34 10.01 10.68 9.02 10 8 C9.01 8.33 8.02 8.66 7 9 C7.66 10.32 8.32 11.64 9 13 C7.68 13.33 6.36 13.66 5 14 C5.495 14.4125 5.99 14.825 6.5 15.25 C8 17 8 17 8 21 C6.35 20.67 4.7 20.34 3 20 C3 19.34 3 18.68 3 18 C2.01 18 1.02 18 0 18 C0 18.66 0 19.32 0 20 C0.66 20.66 1.32 21.32 2 22 C1.67 22.33 1.34 22.66 1 23 C1.66 23.33 2.32 23.66 3 24 C3 23.01 3 22.02 3 21 C3.66 21 4.32 21 5 21 C5 22.32 5 23.64 5 25 C3.02 25.33 1.04 25.66 -1 26 C-1.33 24.02 -1.66 22.04 -2 20 C-2.763125 20.226875 -3.52625 20.45375 -4.3125 20.6875 C-7 21 -7 21 -8.8125 19.6875 C-10 18 -10 18 -10 16 C-9.34 16 -8.68 16 -8 16 C-7.34 16.66 -6.68 17.32 -6 18 C-5.01 17.67 -4.02 17.34 -3 17 C-3 16.34 -3 15.68 -3 15 C-2.34 15 -1.68 15 -1 15 C-0.67 14.34 -0.34 13.68 0 13 C0.99 13.33 1.98 13.66 3 14 C3 13.34 3 12.68 3 12 C2.236875 12.165 1.47375 12.33 0.6875 12.5 C-1.93300853 12.98753647 -4.3451321 13 -7 13 C-7 12.34 -7 11.68 -7 11 C-7.66 10.67 -8.32 10.34 -9 10 C-8.67 9.01 -8.34 8.02 -8 7 C-7.01 7.66 -6.02 8.32 -5 9 C-5 9.66 -5 10.32 -5 11 C-4.01 10.34 -3.02 9.68 -2 9 C-3.32 8.34 -4.64 7.68 -6 7 C-5.67 6.34 -5.34 5.68 -5 5 C-4.01 5 -3.02 5 -2 5 C-1.34 3.35 -0.68 1.7 0 0 Z " fill="#AEB5BD" transform="translate(287,68)"/>
<path d="M0 0 C1.32 0.66 2.64 1.32 4 2 C2.98110061 4.27292941 2.19097369 5.83024561 0.3125 7.5 C-1.2173694 8.9037921 -1.2173694 8.9037921 -0.9375 10.87890625 C1.24217769 15.81042703 8.25508913 17.89999428 13 20 C16.60415346 21.33976385 20.23155926 22.57665279 23.875 23.8046875 C27.89207258 25.34121776 30.74675506 27.21150433 34 30 C34 30.33 34 30.66 34 31 C26.94245232 31 22.29392574 28.72995907 16.38208008 25.15966797 C9.64338342 21.10791423 2.57602254 17.74662367 -5.125 16 C-6.07375 15.67 -7.0225 15.34 -8 15 C-9.0625 12.625 -9.0625 12.625 -10 10 C-11.98768394 8.64837492 -13.9866347 7.31306433 -16 6 C-16 5.01 -16 4.02 -16 3 C-12.74765041 2.72122718 -11.27397254 2.83294358 -8.4375 4.5625 C-6.15759499 6.18520287 -6.15759499 6.18520287 -3.8125 6 C-1.20826105 4.56317851 -0.85003792 2.76262325 0 0 Z " fill="#926435" transform="translate(126,108)"/>
<path d="M0 0 C2.625 0.375 2.625 0.375 5 1 C5.33 2.32 5.66 3.64 6 5 C7.65 5.33 9.3 5.66 11 6 C11.33 6.99 11.66 7.98 12 9 C13.134375 8.484375 14.26875 7.96875 15.4375 7.4375 C20.17524188 5.62376697 24.09890938 6.05835527 29 7 C28.01 7.495 28.01 7.495 27 8 C26.34444881 10.52733235 26.34444881 10.52733235 26 13 C25.236875 13.12375 24.47375 13.2475 23.6875 13.375 C20.79732864 13.88102792 20.79732864 13.88102792 18 16 C13.37083362 15.6770349 7.99662244 14.4704659 4 12 C3.26953125 9.89453125 3.26953125 9.89453125 3 8 C1.35 7.67 -0.3 7.34 -2 7 C-2.125 4.625 -2.125 4.625 -2 2 C-1.34 1.34 -0.68 0.68 0 0 Z " fill="#202019" transform="translate(167,98)"/>
<path d="M0 0 C0.59054513 7.97235926 -1.56896812 14.35345218 -6 21 C-15.6972372 26.50567439 -28.69472639 24.65942545 -39 22 C-38.34 21.67 -37.68 21.34 -37 21 C-37.34444881 18.52733235 -37.34444881 18.52733235 -38 16 C-38.66 15.67 -39.32 15.34 -40 15 C-39.01 15 -38.02 15 -37 15 C-36.7215625 15.928125 -36.7215625 15.928125 -36.4375 16.875 C-34.25288001 20.10443824 -31.72005791 20.19398745 -28 21 C-26.9275 21.2475 -25.855 21.495 -24.75 21.75 C-21.78447166 22.30969121 -21.78447166 22.30969121 -19 20 C-17.7315625 19.7834375 -17.7315625 19.7834375 -16.4375 19.5625 C-13.64573325 19.21178049 -13.64573325 19.21178049 -12 16 C-9.875 14.8125 -9.875 14.8125 -8 14 C-7.74930087 11.62570704 -7.74930087 11.62570704 -8 9 C-9.45570587 7.3355878 -9.45570587 7.3355878 -11 6 C-9.35577799 4.99735282 -7.70957779 3.99794896 -6.0625 3 C-5.14597656 2.443125 -4.22945312 1.88625 -3.28515625 1.3125 C-1 0 -1 0 0 0 Z " fill="#EAEBEA" transform="translate(207,91)"/>
<path d="M0 0 C0.66 0.66 1.32 1.32 2 2 C1.98828125 4.421875 1.98828125 4.421875 1 7 C-1.58203125 8.765625 -1.58203125 8.765625 -4.8125 10.25 C-5.87082031 10.75015625 -6.92914063 11.2503125 -8.01953125 11.765625 C-13.07154385 13.85793952 -17.29995167 14.12946657 -22.75 14.0625 C-23.44738281 14.05798828 -24.14476562 14.05347656 -24.86328125 14.04882812 C-26.57555803 14.0371002 -28.28779033 14.01916653 -30 14 C-31.0625 12.1875 -31.0625 12.1875 -32 10 C-31.67 9.01 -31.34 8.02 -31 7 C-29.96101562 7.04640625 -28.92203125 7.0928125 -27.8515625 7.140625 C-17.08270905 7.47541471 -9.16784338 6.11189558 0 0 Z " fill="#D60307" transform="translate(192,62)"/>
<path d="M0 0 C2.25 1.3125 2.25 1.3125 3.25 3.3125 C6.27934491 3.97022428 6.27934491 3.97022428 9.25 4.3125 C9.25 4.9725 9.25 5.6325 9.25 6.3125 C9.91 6.6425 10.57 6.9725 11.25 7.3125 C10.26 8.9625 9.27 10.6125 8.25 12.3125 C9.24 13.7975 9.24 13.7975 10.25 15.3125 C9.26 15.3125 8.27 15.3125 7.25 15.3125 C6.92 14.6525 6.59 13.9925 6.25 13.3125 C4.22536745 12.66036708 4.22536745 12.66036708 2.25 12.3125 C2.58 14.9525 2.91 17.5925 3.25 20.3125 C2.26 19.9825 1.27 19.6525 0.25 19.3125 C-0.08 18.3225 -0.41 17.3325 -0.75 16.3125 C-2.75016466 15.10367904 -2.75016466 15.10367904 -4.75 14.3125 C-4.42 13.6525 -4.09 12.9925 -3.75 12.3125 C-2.76 12.3125 -1.77 12.3125 -0.75 12.3125 C-0.75 11.3225 -0.75 10.3325 -0.75 9.3125 C3 8.1875 3 8.1875 5.25 9.3125 C5.25 8.3225 5.25 7.3325 5.25 6.3125 C3.27 6.3125 1.29 6.3125 -0.75 6.3125 C-1.08 7.3025 -1.41 8.2925 -1.75 9.3125 C-4.74324263 8.2149777 -5.59610901 7.63567108 -7 4.6875 C-7.2475 3.90375 -7.495 3.12 -7.75 2.3125 C-3.46942446 -0.86735612 -3.46942446 -0.86735612 0 0 Z " fill="#ACAFB1" transform="translate(75.75,105.6875)"/>
<path d="M0 0 C4.37243466 -0.26499604 7.81999471 0.76655582 12 2 C20.56837146 4.20556228 29.20316134 4.58526071 38 5 C34.37268578 7.41820948 31.69069044 7.30297289 27.5 7.25 C26.42794312 7.24746216 26.42794312 7.24746216 25.33422852 7.24487305 C21.06034449 7.18584017 17.1237994 6.74990501 12.9375 5.8125 C7.85076671 4.72794125 5.46599814 5.35685825 1 8 C-1.33878876 9.56328365 -1.33878876 9.56328365 -3 11 C-2.2236068 14.0745356 -2.2236068 14.0745356 0 16 C-1.66611905 16.042721 -3.33382885 16.04063832 -5 16 C-6 15 -6 15 -6.5 12.75 C-5.89365555 9.41510554 -5.18378168 9.0867084 -2.5 7.1875 C-1.34376065 6.44190915 -0.17999478 5.70739483 1 5 C0.67 3.35 0.34 1.7 0 0 Z " fill="#3A5D87" transform="translate(156,110)"/>
<path d="M0 0 C0.86882812 0.00644531 1.73765625 0.01289062 2.6328125 0.01953125 C4.875 0.1875 4.875 0.1875 6.875 1.1875 C7.5 3.75 7.5 3.75 7.875 6.1875 C6.885 5.5275 5.895 4.8675 4.875 4.1875 C4.875 3.5275 4.875 2.8675 4.875 2.1875 C0.915 2.8475 -3.045 3.5075 -7.125 4.1875 C-7.455 5.5075 -7.785 6.8275 -8.125 8.1875 C-6.71289068 10.31008604 -5.28505064 12.21641179 -3.6875 14.1875 C0.58306901 19.80132925 1.77791478 23.82316464 1.19140625 31.01953125 C1.08699219 31.73496094 0.98257813 32.45039063 0.875 33.1875 C0.545 33.1875 0.215 33.1875 -0.125 33.1875 C-0.145625 31.929375 -0.16625 30.67125 -0.1875 29.375 C-0.870507 22.92211302 -4.51510882 18.3895266 -8.125 13.1875 C-11.125 8.59926471 -11.125 8.59926471 -11.125 5.1875 C-19.375 4.8575 -27.625 4.5275 -36.125 4.1875 C-36.125 3.8575 -36.125 3.5275 -36.125 3.1875 C-34.92955566 3.157771 -34.92955566 3.157771 -33.70996094 3.12744141 C-30.09797528 3.03216752 -26.48656601 2.92249693 -22.875 2.8125 C-20.99361328 2.76609375 -20.99361328 2.76609375 -19.07421875 2.71875 C-17.86894531 2.68007812 -16.66367188 2.64140625 -15.421875 2.6015625 C-14.31166992 2.5701416 -13.20146484 2.5387207 -12.05761719 2.50634766 C-7.5936077 2.02099997 -4.63673606 -0.07612552 0 0 Z " fill="#375A87" transform="translate(196.125,123.8125)"/>
<path d="M0 0 C1.9451 2.91765 2.45276317 4.62537285 3 8 C3.66 7.34 4.32 6.68 5 6 C5 5.34 5 4.68 5 4 C4.34 3.67 3.68 3.34 3 3 C6.3 3.33 9.6 3.66 13 4 C13 4.99 13 5.98 13 7 C11.02 7.33 9.04 7.66 7 8 C7.99 9.485 7.99 9.485 9 11 C7.88820837 14.33537489 6.52588702 15.63707344 4 18 C2.68 17.34 1.36 16.68 0 16 C0.99 15.01 1.98 14.02 3 13 C2.67 12.34 2.34 11.68 2 11 C0.02 11.33 -1.96 11.66 -4 12 C-3.67 11.01 -3.34 10.02 -3 9 C-2.01 8.67 -1.02 8.34 0 8 C-1.65 7.67 -3.3 7.34 -5 7 C-5 8.65 -5 10.3 -5 12 C-6.32 11.01 -7.64 10.02 -9 9 C-8.375 7.125 -8.375 7.125 -7 5 C-5.00827818 4.30899447 -3.00838196 3.64097297 -1 3 C-0.67 2.01 -0.34 1.02 0 0 Z " fill="#A4A9AD" transform="translate(232,37)"/>
<path d="M0 0 C0.66 0 1.32 0 2 0 C2.33623796 1.2909136 2.66889249 2.58276097 3 3.875 C3.185625 4.59429688 3.37125 5.31359375 3.5625 6.0546875 C4 8 4 8 4 10 C4.66 10.33 5.32 10.66 6 11 C6 10.34 6 9.68 6 9 C6.33 8.67 6.66 8.34 7 8 C6.34 8 5.68 8 5 8 C5 7.34 5 6.68 5 6 C6.32 5.67 7.64 5.34 9 5 C9.66 6.65 10.32 8.3 11 10 C10.34 10 9.68 10 9 10 C9.52268466 12.76276177 10.10869587 15.3260876 11 18 C10.21625 17.67 9.4325 17.34 8.625 17 C6.15667503 15.88133489 6.15667503 15.88133489 4 16 C4.33 17.32 4.66 18.64 5 20 C2.625 19.6875 2.625 19.6875 0 19 C-0.66 18.01 -1.32 17.02 -2 16 C-4.05925139 15.27617533 -4.05925139 15.27617533 -6 15 C-4.125 13.9375 -4.125 13.9375 -2 13 C-1.34 13.33 -0.68 13.66 0 14 C0 13.01 0 12.02 0 11 C-1.32 10.67 -2.64 10.34 -4 10 C-3.34 9.67 -2.68 9.34 -2 9 C-1.67 8.01 -1.34 7.02 -1 6 C-0.01 7.485 -0.01 7.485 1 9 C0.84402344 8.43410156 0.68804687 7.86820313 0.52734375 7.28515625 C0.23537109 6.18494141 0.23537109 6.18494141 -0.0625 5.0625 C-0.35833984 3.96615234 -0.35833984 3.96615234 -0.66015625 2.84765625 C-0.77230469 2.23792969 -0.88445312 1.62820312 -1 1 C-0.67 0.67 -0.34 0.34 0 0 Z " fill="#A0A6AD" transform="translate(304,22)"/>
<path d="M0 0 C9.11130839 0.11533302 17.26864072 5.87925424 25 10.1875 C30.10977644 13.0000501 34.49728488 14.55996719 40.25 15.4375 C40.25 14.7775 40.25 14.1175 40.25 13.4375 C40.91 13.4375 41.57 13.4375 42.25 13.4375 C41.92 15.0875 41.59 16.7375 41.25 18.4375 C27.70193816 16.99621683 27.70193816 16.99621683 23.89331055 13.02172852 C20.79245218 10.03235547 16.67742965 8.55979155 12.8125 6.75 C11.52375977 6.12641602 11.52375977 6.12641602 10.20898438 5.49023438 C9.37818359 5.09771484 8.54738281 4.70519531 7.69140625 4.30078125 C6.93545166 3.94282471 6.17949707 3.58486816 5.40063477 3.21606445 C3.00434946 2.21056857 3.00434946 2.21056857 -0.75 2.4375 C-1.08 4.0875 -1.41 5.7375 -1.75 7.4375 C-2.41 6.4475 -3.07 5.4575 -3.75 4.4375 C-4.08 5.0975 -4.41 5.7575 -4.75 6.4375 C-5.41 6.4375 -6.07 6.4375 -6.75 6.4375 C-4.47483221 0.52206376 -4.47483221 0.52206376 0 0 Z " fill="#4F4831" transform="translate(119.75,123.5625)"/>
<path d="M0 0 C0.66 0 1.32 0 2 0 C2.74926071 3.66305234 3.2380014 6.42355152 2 10 C3.32 10.33 4.64 10.66 6 11 C6 10.34 6 9.68 6 9 C7.65 8.67 9.3 8.34 11 8 C10.4740625 8.804375 10.4740625 8.804375 9.9375 9.625 C8.71075751 12.73274763 9.27143569 14.79431703 10 18 C9.34 18.33 8.68 18.66 8 19 C7.34 17.35 6.68 15.7 6 14 C5.01 14 4.02 14 3 14 C3.185625 14.598125 3.37125 15.19625 3.5625 15.8125 C4 18 4 18 3 21 C2.01 20.67 1.02 20.34 0 20 C0 19.34 0 18.68 0 18 C-2.94729537 16.84188612 -2.94729537 16.84188612 -6 17 C-6 16.01 -6 15.02 -6 14 C-2.25 12.875 -2.25 12.875 0 14 C0 13.01 0 12.02 0 11 C-1.32 10.67 -2.64 10.34 -4 10 C-3.34 8.68 -2.68 7.36 -2 6 C-1.34 6 -0.68 6 0 6 C0 5.01 0 4.02 0 3 C0 2.01 0 1.02 0 0 Z " fill="#A0A6AC" transform="translate(30,33)"/>
<path d="M0 0 C-0.33 0.94875 -0.66 1.8975 -1 2.875 C-2.10159191 5.77062452 -2.10159191 5.77062452 -2 8 C-1.34 8 -0.68 8 0 8 C-0.6875 10.875 -0.6875 10.875 -2 14 C-4.375 15.3125 -4.375 15.3125 -7 16 C-7.763125 16.20625 -8.52625 16.4125 -9.3125 16.625 C-9.869375 16.74875 -10.42625 16.8725 -11 17 C-11.125 14.125 -11.125 14.125 -11 11 C-9 9 -9 9 -7 8 C-5.86649466 5.98330173 -5.86649466 5.98330173 -5 4 C-5.66 3.67 -6.32 3.34 -7 3 C-7 2.01 -7 1.02 -7 0 C-3.86650268 -1.04449911 -3.01031744 -0.93423645 0 0 Z " fill="#B0BECC" transform="translate(246,44)"/>
<path d="M0 0 C0.33 0.66 0.66 1.32 1 2 C2.65204456 2.70211894 4.31923769 3.36971413 6 4 C7 5 7 5 7.0625 8.0625 C7.041875 9.031875 7.02125 10.00125 7 11 C7.66 11 8.32 11 9 11 C9.33 12.32 9.66 13.64 10 15 C8.56988027 15.86646667 7.13059381 16.71781829 5.6875 17.5625 C4.88699219 18.03816406 4.08648437 18.51382813 3.26171875 19.00390625 C1 20 1 20 -2 19 C-2.33 18.34 -2.66 17.68 -3 17 C-2.36191406 16.89042969 -1.72382813 16.78085938 -1.06640625 16.66796875 C-0.24011719 16.50941406 0.58617187 16.35085937 1.4375 16.1875 C2.26121094 16.03667969 3.08492187 15.88585937 3.93359375 15.73046875 C4.61550781 15.48941406 5.29742187 15.24835938 6 15 C6.33 14.01 6.66 13.02 7 12 C6.071875 12.495 5.14375 12.99 4.1875 13.5 C1 15 1 15 -2 15 C-2 14.34 -2 13.68 -2 13 C-0.02 12.01 1.96 11.02 4 10 C3.67 8.35 3.34 6.7 3 5 C-0.02275559 5.46503932 -1.43074114 6.30510831 -4 8.125 C-7 10 -7 10 -9.375 9.75 C-9.91125 9.5025 -10.4475 9.255 -11 9 C-10.05125 8.54625 -9.1025 8.0925 -8.125 7.625 C-4.99686321 6.19761746 -4.99686321 6.19761746 -3 4 C-2.34 3.67 -1.68 3.34 -1 3 C-0.67 2.01 -0.34 1.02 0 0 Z " fill="#3B608B" transform="translate(206,105)"/>
<path d="M0 0 C0.66 0.99 1.32 1.98 2 3 C1.4375 5.1875 1.4375 5.1875 0 8 C-0.309375 8.62390625 -0.61875 9.2478125 -0.9375 9.890625 C-4.15902246 15.75200615 -8.24702919 18.74706181 -14 22 C-14.68578125 22.40347656 -15.3715625 22.80695313 -16.078125 23.22265625 C-20.72422148 25.77435097 -24.68831951 26.81994303 -30 27 C-30.99 26.34 -31.98 25.68 -33 25 C-32.34515625 24.85304687 -31.6903125 24.70609375 -31.015625 24.5546875 C-21.68908467 22.26257166 -11.0299194 18.91426922 -5 11 C-2.95288919 7.43858803 -1.29913678 3.89741035 0 0 Z " fill="#292929" transform="translate(233,204)"/>
<path d="M0 0 C6.75 -0.125 6.75 -0.125 9 1 C8.6875 2.9375 8.6875 2.9375 8 5 C7.01 5.33 6.02 5.66 5 6 C7.97 6 10.94 6 14 6 C13.01 6.495 13.01 6.495 12 7 C12 7.66 12 8.32 12 9 C9.50935112 9.68707555 7.62113708 10 5 10 C4.34 10.66 3.68 11.32 3 12 C2.34 12 1.68 12 1 12 C1.33 12.99 1.66 13.98 2 15 C1.34 15 0.68 15 0 15 C-1.15837626 10.94568308 -0.83691257 8.78187881 1 5 C0.34 4.34 -0.32 3.68 -1 3 C-0.67 2.01 -0.34 1.02 0 0 Z " fill="#C9CCCD" transform="translate(55,34)"/>
<path d="M0 0 C-0.99 0.495 -0.99 0.495 -2 1 C-2.65555119 3.52733235 -2.65555119 3.52733235 -3 6 C-3.7425 6.144375 -4.485 6.28875 -5.25 6.4375 C-7.52027739 6.90187492 -9.75759479 7.41863569 -12 8 C-12 7.34 -12 6.68 -12 6 C-14.475 5.01 -14.475 5.01 -17 4 C-17 3.34 -17 2.68 -17 2 C-10.81546992 -0.81115003 -6.65941972 -1.27947184 0 0 Z " fill="#1F1D19" transform="translate(196,105)"/>
<path d="M0 0 C2.38627913 4.35685598 2.9434214 8.63966395 3.6875 13.5 C3.82994141 14.35464844 3.97238281 15.20929687 4.11914062 16.08984375 C4.24869141 16.91613281 4.37824219 17.74242188 4.51171875 18.59375 C4.68900513 19.71813477 4.68900513 19.71813477 4.86987305 20.86523438 C5.00810301 23.13293191 4.66468961 24.83922348 4 27 C1.33333333 27 -1.33333333 27 -4 27 C-4 25.02 -4 23.04 -4 21 C-2.02 21 -0.04 21 2 21 C1.39990913 15.71915152 1.39990913 15.71915152 0.4375 10.5 C-0.17992836 6.97183795 -0.06067913 3.58006894 0 0 Z " fill="#191E1C" transform="translate(189,37)"/>
<path d="M0 0 C-0.33 2.31 -0.66 4.62 -1 7 C-0.01 7.33 0.98 7.66 2 8 C2 8.99 2 9.98 2 11 C0.081875 11.185625 0.081875 11.185625 -1.875 11.375 C-5.34790936 11.69042399 -5.34790936 11.69042399 -8 14 C-8.88935377 10.696686 -9.46274105 7.37705625 -10 4 C-8.71086513 3.32845067 -7.41859796 2.66291141 -6.125 2 C-5.40570312 1.62875 -4.68640625 1.2575 -3.9453125 0.875 C-2 0 -2 0 0 0 Z " fill="#BFC5C8" transform="translate(28,36)"/>
<path d="M0 0 C5.75622482 1.83531806 11.35827453 3.90087527 16.93359375 6.23046875 C18.94486874 7.116329 18.94486874 7.116329 21 7 C22.62514468 5.54166642 22.62514468 5.54166642 24 4 C23.67 5.98 23.34 7.96 23 10 C24.3303125 10.4021875 24.3303125 10.4021875 25.6875 10.8125 C28.76877548 11.91710819 31.26221405 13.22849144 34 15 C33.34 15.66 32.68 16.32 32 17 C31.16984375 16.39929688 30.3396875 15.79859375 29.484375 15.1796875 C25.93663096 12.81521799 22.26495921 11.49168212 18.25 10.125 C11.72412405 7.79895266 5.61837851 5.14625529 0 1 C0 0.67 0 0.34 0 0 Z " fill="#473E27" transform="translate(127,121)"/>
<path d="M0 0 C0.99 0 1.98 0 3 0 C3.185625 0.61875 3.37125 1.2375 3.5625 1.875 C5.74711999 5.10443824 8.27994209 5.19398745 12 6 C13.0725 6.2475 14.145 6.495 15.25 6.75 C18.21552834 7.30969121 18.21552834 7.30969121 21 5 C22.9896995 4.60986284 24.99019869 4.26797351 27 4 C27 4.66 27 5.32 27 6 C27.66 6.66 28.32 7.32 29 8 C20.14208882 10.7271894 9.81397284 9.27457364 1 7 C1.66 6.67 2.32 6.34 3 6 C2.65555119 3.52733235 2.65555119 3.52733235 2 1 C1.34 0.67 0.68 0.34 0 0 Z " fill="#E7EAED" transform="translate(167,106)"/>
<path d="M0 0 C0.99 0 1.98 0 3 0 C2.67 1.98 2.34 3.96 2 6 C2.66 6 3.32 6 4 6 C4 6.66 4 7.32 4 8 C2.01432292 7.93489583 0.02864583 7.86979167 -1.95703125 7.8046875 C-4.31359719 7.86745538 -4.31359719 7.86745538 -7 10 C-8.65 9.01 -10.3 8.02 -12 7 C-11.8125 5.125 -11.8125 5.125 -11 3 C-8.4375 1.75 -8.4375 1.75 -6 1 C-5.67 1.99 -5.34 2.98 -5 4 C-5.66 4.66 -6.32 5.32 -7 6 C-5.02463255 5.65213292 -5.02463255 5.65213292 -3 5 C-2.67 4.34 -2.34 3.68 -2 3 C-1.34 2.67 -0.68 2.34 0 2 C0 1.34 0 0.68 0 0 Z " fill="#A0A5AB" transform="translate(30,90)"/>
<path d="M0 0 C0.66 1.32 1.32 2.64 2 4 C1.34 4.66 0.68 5.32 0 6 C-0.6425235 8.06874034 -0.6425235 8.06874034 -1 10 C-0.34 10 0.32 10 1 10 C0.67 11.98 0.34 13.96 0 16 C-0.99 16 -1.98 16 -3 16 C-3.33 14.68 -3.66 13.36 -4 12 C-3.01 12 -2.02 12 -1 12 C-1.66 11.34 -2.32 10.68 -3 10 C-3.33 9.34 -3.66 8.68 -4 8 C-4.66 7.67 -5.32 7.34 -6 7 C-5.67 6.01 -5.34 5.02 -5 4 C-5.66 4 -6.32 4 -7 4 C-7 3.01 -7 2.02 -7 1 C-4.53721199 -0.231394 -2.7204945 -0.07159196 0 0 Z " fill="#A6ADB9" transform="translate(39,92)"/>
<path d="M0 0 C0.91845703 0.47566406 0.91845703 0.47566406 1.85546875 0.9609375 C6.31343206 2.43400364 10.644727 2.46665858 15.3125 2.625 C16.24384766 2.66367188 17.17519531 2.70234375 18.13476562 2.7421875 C20.42298407 2.83606313 22.71120295 2.92174509 25 3 C25 3.33 25 3.66 25 4 C19.06 4 13.12 4 7 4 C6.67 5.65 6.34 7.3 6 9 C0.25 7.125 0.25 7.125 -2 6 C-1.125 1.125 -1.125 1.125 0 0 Z " fill="#C3CAD4" transform="translate(152,125)"/>
<path d="M0 0 C0.66 0.66 1.32 1.32 2 2 C4.60280568 1.67958603 4.60280568 1.67958603 7 1 C7 1.66 7 2.32 7 3 C7.99 3 8.98 3 10 3 C10 3.66 10 4.32 10 5 C7.91796875 6.5078125 7.91796875 6.5078125 5.1875 8.125 C4.29417969 8.66382812 3.40085938 9.20265625 2.48046875 9.7578125 C0 11 0 11 -3 11 C-2.32829194 7.1936543 -1.27253436 3.64793184 0 0 Z " fill="#755B30" transform="translate(195,86)"/>
<path d="M0 0 C0.33 0 0.66 0 1 0 C1.19532961 1.7699868 1.38098882 3.54104279 1.5625 5.3125 C1.66691406 6.29863281 1.77132812 7.28476563 1.87890625 8.30078125 C2 11 2 11 1 14 C3.97 14 6.94 14 10 14 C9.01 14.33 8.02 14.66 7 15 C7 16.65 7 18.3 7 20 C6.34 20 5.68 20 5 20 C4.67 20.99 4.34 21.98 4 23 C3.34 23 2.68 23 2 23 C1.67 20.69 1.34 18.38 1 16 C0.01 15.67 -0.98 15.34 -2 15 C-1.34 10.05 -0.68 5.1 0 0 Z " fill="#4F637A" transform="translate(195,148)"/>
<path d="M0 0 C2.97 0.33 5.94 0.66 9 1 C9.33 2.32 9.66 3.64 10 5 C14.62 4.67 19.24 4.34 24 4 C19.13805073 7.24129951 14.98341492 7.13294839 9.25 7.0625 C8.55261719 7.05798828 7.85523438 7.05347656 7.13671875 7.04882812 C5.42444197 7.0371002 3.71220967 7.01916653 2 7 C0.5393715 4.35261084 0 3.10551666 0 0 Z " fill="#830507" transform="translate(160,69)"/>
<path d="M0 0 C7.77403687 1.28841821 15.51589916 1.74162923 23.375 2.125 C19.74889595 4.5424027 17.06509436 4.43043353 12.875 4.375 C11.80946899 4.36702393 11.80946899 4.36702393 10.72241211 4.35888672 C4.89364066 4.25497767 -1.04729396 3.94308527 -6.625 2.125 C-6.955 1.465 -7.285 0.805 -7.625 0.125 C-4.80889328 -1.28305336 -3.08677428 -0.55914273 0 0 Z " fill="#41648E" transform="translate(170.625,112.875)"/>
<path d="M0 0 C0.66 0.33 1.32 0.66 2 1 C1.95359375 2.05058594 1.9071875 3.10117188 1.859375 4.18359375 C1.50324816 14.56088412 1.50324816 14.56088412 5.02734375 24.203125 C6.06289523 26.11619199 6.5541716 27.8787954 7 30 C2.32507464 25.70412265 -0.71679651 21.99723695 -1.328125 15.52734375 C-1.30234375 14.34269531 -1.2765625 13.15804687 -1.25 11.9375 C-1.23453125 10.75027344 -1.2190625 9.56304687 -1.203125 8.33984375 C-1.02745752 5.45146505 -0.65899873 2.8113736 0 0 Z " fill="#222527" transform="translate(156,82)"/>
<path d="M0 0 C1.43655854 -0.08131463 2.8744483 -0.13933559 4.3125 -0.1875 C5.51326172 -0.23970703 5.51326172 -0.23970703 6.73828125 -0.29296875 C9.47851584 0.06198392 10.29171079 0.89366282 12 3 C11.34 5.31 10.68 7.62 10 10 C11.32 9.67 12.64 9.34 14 9 C14.33 9.99 14.66 10.98 15 12 C13.02 12 11.04 12 9 12 C8.67 11.01 8.34 10.02 8 9 C5.98491642 8.26676204 5.98491642 8.26676204 4 8 C3.67 6.68 3.34 5.36 3 4 C4.32 4.33 5.64 4.66 7 5 C7 4.34 7 3.68 7 3 C4.69 2.67 2.38 2.34 0 2 C0 1.34 0 0.68 0 0 Z " fill="#9FA2A6" transform="translate(60,38)"/>
<path d="M0 0 C3.375 -0.125 3.375 -0.125 7 0 C7.66 0.66 8.32 1.32 9 2 C8.77256695 4.95662966 8.38764062 6.55033688 6.4375 8.8125 C5.963125 9.204375 5.48875 9.59625 5 10 C0.76169024 7.17446016 1.02284652 4.87819112 0 0 Z " fill="#322D2E" transform="translate(195,63)"/>
<path d="M0 0 C1.65 0.33 3.3 0.66 5 1 C6.15941038 4.47823115 5.70820884 6.45895578 5 10 C2.1875 10.3125 2.1875 10.3125 -1 10 C-2.875 7.5 -2.875 7.5 -4 5 C-2.35 4.67 -0.7 4.34 1 4 C0.67 2.68 0.34 1.36 0 0 Z " fill="#B9BBBD" transform="translate(29,97)"/>
<path d="M0 0 C3 2 3 2 4 5 C4.45245895 12.59710136 4.15714981 19.68965897 2 27 C1.34 27.66 0.68 28.32 0 29 C0.165 27.80375 0.33 26.6075 0.5 25.375 C1.43566482 16.94064995 1.59657347 8.35033268 0 0 Z " fill="#0F1115" transform="translate(221,128)"/>
<path d="M0 0 C5.56053158 1.34800766 8.87355541 5.44937984 12 10 C12.9375 13.5 12.9375 13.5 13 16 C10.64270057 13.80861021 8.97942902 11.56068027 7.3125 8.8125 C6.87550781 8.09707031 6.43851563 7.38164063 5.98828125 6.64453125 C5.66214844 6.10183594 5.33601562 5.55914062 5 5 C2.61435923 5.57584432 0.33317216 6.22227595 -2 7 C-1.125 1.125 -1.125 1.125 0 0 Z " fill="#17191A" transform="translate(195,70)"/>
<path d="M0 0 C0.99 0 1.98 0 3 0 C3.33 1.32 3.66 2.64 4 4 C6.31 4 8.62 4 11 4 C11.33 5.65 11.66 7.3 12 9 C11.01 9.495 11.01 9.495 10 10 C9.34 9.01 8.68 8.02 8 7 C7.01 7.33 6.02 7.66 5 8 C5.66 9.32 6.32 10.64 7 12 C6.01 12 5.02 12 4 12 C2.3125 10 2.3125 10 1 8 C1.66 7.34 2.32 6.68 3 6 C2.2575 5.071875 2.2575 5.071875 1.5 4.125 C0 2 0 2 0 0 Z " fill="#9BA5B0" transform="translate(289,69)"/>
<path d="M0 0 C3.53571429 0.53571429 3.53571429 0.53571429 5 2 C5.1875 4.4375 5.1875 4.4375 5 7 C4.34 7.66 3.68 8.32 3 9 C1.68 9 0.36 9 -1 9 C-1.625 5.625 -1.625 5.625 -2 2 C-1.34 1.34 -0.68 0.68 0 0 Z " fill="#151515" transform="translate(173,84)"/>
<path d="M0 0 C0.33 0 0.66 0 1 0 C1 1.98 1 3.96 1 6 C1.78375 5.505 2.5675 5.01 3.375 4.5 C6 3 6 3 8 3 C8 3.66 8 4.32 8 5 C-0.90436322 9.8966711 -7.83219478 11.89862763 -18 11 C-18 10.67 -18 10.34 -18 10 C-15.56318413 9.49645133 -13.12564561 8.99703244 -10.6875 8.5 C-9.99720703 8.35691406 -9.30691406 8.21382812 -8.59570312 8.06640625 C-5.67475227 7.47374956 -2.98891878 7 0 7 C0 4.69 0 2.38 0 0 Z " fill="#131313" transform="translate(205,164)"/>
<path d="M0 0 C-0.66 0 -1.32 0 -2 0 C-2 0.66 -2 1.32 -2 2 C-7.12919186 4.10428384 -11.5610835 4.21755666 -17 4 C-17 3.67 -17 3.34 -17 3 C-15.35 2.67 -13.7 2.34 -12 2 C-12 1.01 -12 0.02 -12 -1 C-3.42857143 -2.42857143 -3.42857143 -2.42857143 0 0 Z " fill="#AD0103" transform="translate(181,71)"/>
<path d="M0 0 C-0.99 0.66 -1.98 1.32 -3 2 C-2.67 2.66 -2.34 3.32 -2 4 C-3.65 4 -5.3 4 -7 4 C-5.68 4.66 -4.36 5.32 -3 6 C-3.66 7.32 -4.32 8.64 -5 10 C-6.32 9.34 -7.64 8.68 -9 8 C-9 7.34 -9 6.68 -9 6 C-9.66 6 -10.32 6 -11 6 C-10.9375 4.1875 -10.9375 4.1875 -10 2 C-3.87234043 -1.29078014 -3.87234043 -1.29078014 0 0 Z " fill="#9FA6B0" transform="translate(303,26)"/>
<path d="M0 0 C1.32 0.33 2.64 0.66 4 1 C4 1.99 4 2.98 4 4 C2.68 4.33 1.36 4.66 0 5 C1.32 5.33 2.64 5.66 4 6 C3.01 6.495 3.01 6.495 2 7 C1.67 7.99 1.34 8.98 1 10 C1.66 10 2.32 10 3 10 C3 10.66 3 11.32 3 12 C1.68 12 0.36 12 -1 12 C-1 10.68 -1 9.36 -1 8 C-2.32 7.34 -3.64 6.68 -5 6 C-4.67 5.01 -4.34 4.02 -4 3 C-3.34 3 -2.68 3 -2 3 C-1.34 2.01 -0.68 1.02 0 0 Z " fill="#B7BCC3" transform="translate(300,32)"/>
<path d="M0 0 C0.721875 0.391875 1.44375 0.78375 2.1875 1.1875 C2.1875 2.1775 2.1875 3.1675 2.1875 4.1875 C0.8675 4.5175 -0.4525 4.8475 -1.8125 5.1875 C-2.1425 6.5075 -2.4725 7.8275 -2.8125 9.1875 C-4.52134005 7.56410195 -6.18696717 5.89430947 -7.8125 4.1875 C-7.8125 3.5275 -7.8125 2.8675 -7.8125 2.1875 C-4.86429158 -0.17106674 -3.72198415 -1.07523986 0 0 Z " fill="#BEC6CD" transform="translate(75.8125,105.8125)"/>
<path d="M0 0 C2.125 0.375 2.125 0.375 4 1 C4 3.31 4 5.62 4 8 C2.35 8.33 0.7 8.66 -1 9 C-1.625 5.625 -1.625 5.625 -2 2 C-1.34 1.34 -0.68 0.68 0 0 Z " fill="#080808" transform="translate(191,83)"/>
<path d="M0 0 C0.33 1.65 0.66 3.3 1 5 C0.34 5 -0.32 5 -1 5 C-1 5.99 -1 6.98 -1 8 C-5.75 7.25 -5.75 7.25 -8 5 C-8 4.01 -8 3.02 -8 2 C-2.25 0 -2.25 0 0 0 Z " fill="#936B24" transform="translate(190,94)"/>
<path d="M0 0 C0.66 0.99 1.32 1.98 2 3 C0.5916508 8.47691356 -3.02961545 14.19850555 -7.1875 18 C-9 19 -9 19 -11 19 C-9.88721687 16.26862322 -8.85633491 14.87145755 -6.625 12.875 C-3.11268736 9.02818139 -1.692202 4.86862586 0 0 Z " fill="#212121" transform="translate(233,204)"/>
<path d="M0 0 C0.103125 0.639375 0.20625 1.27875 0.3125 1.9375 C0.539375 2.618125 0.76625 3.29875 1 4 C1.99 4.33 2.98 4.66 4 5 C2.28032649 8.02990095 0.70761694 10.76327296 -2 13 C-2.66 13 -3.32 13 -4 13 C-4.1875 10.1875 -4.1875 10.1875 -4 7 C-2.5625 5.375 -2.5625 5.375 -1 4 C-0.28552357 1.89667109 -0.28552357 1.89667109 0 0 Z " fill="#E9EBEF" transform="translate(211,156)"/>
<path d="M0 0 C0.66 0 1.32 0 2 0 C2.4989294 7.53937758 2.06618566 12.54194042 -2 19 C-2.66 19.33 -3.32 19.66 -4 20 C-3.79503906 19.31035156 -3.59007812 18.62070313 -3.37890625 17.91015625 C-1.65727143 11.9050281 -0.51032045 6.22590949 0 0 Z " fill="#23252A" transform="translate(207,90)"/>
<path d="M0 0 C2.625 0.375 2.625 0.375 5 1 C4.34 2.32 3.68 3.64 3 5 C3.33 5.33 3.66 5.66 4 6 C5.33332095 8.6666419 4.67102033 10.16680303 4 13 C3.01 12.67 2.02 12.34 1 12 C1.66 11.67 2.32 11.34 3 11 C3 10.34 3 9.68 3 9 C2.34 9 1.68 9 1 9 C0.34 7.68 -0.32 6.36 -1 5 C-0.01 4.67 0.98 4.34 2 4 C2 3.34 2 2.68 2 2 C0.02 3.32 -1.96 4.64 -4 6 C-2.84826645 3.53199953 -1.95216435 1.95216435 0 0 Z " fill="#D7DADC" transform="translate(231,47)"/>
<path d="M0 0 C0.66 0.33 1.32 0.66 2 1 C1.67 1.99 1.34 2.98 1 4 C1 3.34 1 2.68 1 2 C0.34 2 -0.32 2 -1 2 C-0.67039784 7.01535052 -0.67039784 7.01535052 2 11 C0.35 11.33 -1.3 11.66 -3 12 C-3 11.01 -3 10.02 -3 9 C-3.99 9 -4.98 9 -6 9 C-5.34 7.68 -4.68 6.36 -4 5 C-3.67 5 -3.34 5 -3 5 C-3.66 4.01 -4.32 3.02 -5 2 C-2.625 0.9375 -2.625 0.9375 0 0 Z " fill="#D0D4D7" transform="translate(297,75)"/>
<path d="M0 0 C0.66 0.33 1.32 0.66 2 1 C2.8125 3.875 2.8125 3.875 3 7 C1.8046875 8.68359375 1.8046875 8.68359375 0 10 C-2.26171875 10.29296875 -2.26171875 10.29296875 -4.6875 10.1875 C-5.89986328 10.14689453 -5.89986328 10.14689453 -7.13671875 10.10546875 C-7.75160156 10.07066406 -8.36648437 10.03585938 -9 10 C-6.97007853 8.4050617 -5.22034323 7.08813729 -2.8125 6.125 C-0.71108297 5.10190907 -0.71108297 5.10190907 -0.25 2.375 C-0.1675 1.59125 -0.085 0.8075 0 0 Z " fill="#301811" transform="translate(194,63)"/>
<path d="M0 0 C2.31 0.33 4.62 0.66 7 1 C6.67 1.66 6.34 2.32 6 3 C5.01 3.33 4.02 3.66 3 4 C2.32843384 5.93618425 2.32843384 5.93618425 2 8 C1.67 8.66 1.34 9.32 1 10 C0.34 10 -0.32 10 -1 10 C-0.34 11.32 0.32 12.64 1 14 C0.01 13.67 -0.98 13.34 -2 13 C-2.6875 10.6875 -2.6875 10.6875 -3 8 C-2.02149805 6.97895449 -1.02019573 5.9793879 0 5 C0.25069913 2.37429296 0.25069913 2.37429296 0 0 Z " fill="#B8C1CA" transform="translate(226,43)"/>
<path d="M0 0 C1.98 0 3.96 0 6 0 C6.66 1.32 7.32 2.64 8 4 C8.33 3.34 8.66 2.68 9 2 C10.32 2 11.64 2 13 2 C13.66 3.32 14.32 4.64 15 6 C13.35 6.33 11.7 6.66 10 7 C10.66 6.34 11.32 5.68 12 5 C8.7 5 5.4 5 2 5 C1.34 3.35 0.68 1.7 0 0 Z " fill="#929CA5" transform="translate(77,104)"/>
<path d="M0 0 C3.04470873 1.52235436 4.20270948 4.18424486 6 7 C3.69 7 1.38 7 -1 7 C-1 6.34 -1 5.68 -1 5 C-2.32 4.34 -3.64 3.68 -5 3 C-2.625 1.4375 -2.625 1.4375 0 0 Z " fill="#BEC4C9" transform="translate(26,48)"/>
<path d="M0 0 C2.64 0.33 5.28 0.66 8 1 C7.01 1.495 7.01 1.495 6 2 C5.34444881 4.52733235 5.34444881 4.52733235 5 7 C3.35 7.33 1.7 7.66 0 8 C0 7.34 0 6.68 0 6 C0.66 5.67 1.32 5.34 2 5 C1.34 3.35 0.68 1.7 0 0 Z " fill="#0C0B0A" transform="translate(188,104)"/>
<path d="M0 0 C0.99 0.33 1.98 0.66 3 1 C2.38511719 1.88751953 2.38511719 1.88751953 1.7578125 2.79296875 C0.94957031 3.97826172 0.94957031 3.97826172 0.125 5.1875 C-0.40867188 5.96480469 -0.94234375 6.74210938 -1.4921875 7.54296875 C-2.98015439 9.9676609 -4.02428078 12.3333499 -5 15 C-5.66 14.67 -6.32 14.34 -7 14 C-5.53967505 8.68972746 -3.01679014 4.53669968 0 0 Z " fill="#28292C" transform="translate(149,163)"/>
<path d="M0 0 C0 0.66 0 1.32 0 2 C0.66 2.33 1.32 2.66 2 3 C1.34 3.66 0.68 4.32 0 5 C-0.99 5 -1.98 5 -3 5 C-3.33 4.01 -3.66 3.02 -4 2 C-5.98 2 -7.96 2 -10 2 C-10.33 2.66 -10.66 3.32 -11 4 C-11 2.68 -11 1.36 -11 0 C-7.18243176 -1.37432457 -3.92744671 -0.67975039 0 0 Z " fill="#9FA0A0" transform="translate(85,110)"/>
<path d="M0 0 C0.66 0.33 1.32 0.66 2 1 C-2.75 5 -2.75 5 -5 5 C-5 6.98 -5 8.96 -5 11 C-5.99 11.495 -5.99 11.495 -7 12 C-8.30830642 9.84514236 -9.05396948 8.5515681 -8.8046875 6.00390625 C-7.74192328 3.3573138 -6.61249732 2.88180254 -4.0625 1.6875 C-3.35222656 1.34074219 -2.64195312 0.99398437 -1.91015625 0.63671875 C-1.27980469 0.42660156 -0.64945313 0.21648437 0 0 Z " fill="#D6DCDF" transform="translate(213,121)"/>
<path d="M0 0 C-1.20381448 2.49361571 -2.45428722 4.68143083 -4 7 C-6.625 7.1875 -6.625 7.1875 -9 7 C-8.34 5.02 -7.68 3.04 -7 1 C-2.25 0 -2.25 0 0 0 Z " fill="#F7F6F7" transform="translate(202,106)"/>
<path d="M0 0 C0.99 0.66 1.98 1.32 3 2 C2.01 2.66 1.02 3.32 0 4 C-0.2502157 7.08365871 -0.2502157 7.08365871 0 10 C0.66 10.33 1.32 10.66 2 11 C0.35 11.33 -1.3 11.66 -3 12 C-3.66 11.01 -4.32 10.02 -5 9 C-4.34 9 -3.68 9 -3 9 C-2.34 7.68 -1.68 6.36 -1 5 C-1.66 4.67 -2.32 4.34 -3 4 C-3 3.01 -3 2.02 -3 1 C-2.01 0.67 -1.02 0.34 0 0 Z " fill="#CDD2D7" transform="translate(242,43)"/>
<path d="M0 0 C5.28 0 10.56 0 16 0 C16 0.66 16 1.32 16 2 C14.62714844 2.07347656 14.62714844 2.07347656 13.2265625 2.1484375 C12.03804687 2.22320312 10.84953125 2.29796875 9.625 2.375 C7.84996094 2.47941406 7.84996094 2.47941406 6.0390625 2.5859375 C2.89437681 2.70217346 2.89437681 2.70217346 1 5 C0.67 3.35 0.34 1.7 0 0 Z " fill="#996738" transform="translate(241,102)"/>
<path d="M0 0 C-0.625 1.9375 -0.625 1.9375 -2 4 C-4.9375 4.9375 -4.9375 4.9375 -8 5 C-9.875 3.5625 -9.875 3.5625 -11 2 C-7.17010894 0.19769832 -4.21878192 -0.19622241 0 0 Z " fill="#61593F" transform="translate(214,84)"/>
<path d="M0 0 C0.33 0.99 0.66 1.98 1 3 C1.99 3.33 2.98 3.66 4 4 C4.99 4.66 5.98 5.32 7 6 C6.34 7.98 5.68 9.96 5 12 C4.01 11.67 3.02 11.34 2 11 C2.66 10.67 3.32 10.34 4 10 C3.36020151 7.96758273 3.36020151 7.96758273 2 6 C-0.55519921 5.18828772 -0.55519921 5.18828772 -3 5 C-1.125 1.125 -1.125 1.125 0 0 Z " fill="#DDE0E3" transform="translate(61,41)"/>
<path d="M0 0 C0.93779297 0.04833984 1.87558594 0.09667969 2.84179688 0.14648438 C4.30649414 0.2305957 4.30649414 0.2305957 5.80078125 0.31640625 C6.78884766 0.36861328 7.77691406 0.42082031 8.79492188 0.47460938 C11.23469801 0.60425931 13.6740623 0.73922367 16.11328125 0.87890625 C16.11328125 1.20890625 16.11328125 1.53890625 16.11328125 1.87890625 C12.86427791 2.10535194 9.61419086 2.30688142 6.36328125 2.50390625 C5.44289062 2.56835938 4.5225 2.6328125 3.57421875 2.69921875 C2.24003906 2.7765625 2.24003906 2.7765625 0.87890625 2.85546875 C-0.34650879 2.934021 -0.34650879 2.934021 -1.59667969 3.01416016 C-4.15512143 2.8630539 -5.69540043 2.16817586 -7.88671875 0.87890625 C-4.85537491 -0.1315417 -3.14275932 -0.17142324 0 0 Z " fill="#3A3A3A" transform="translate(174.88671875,229.12109375)"/>
<path d="M0 0 C0.66 1.32 1.32 2.64 2 4 C4.64 3.34 7.28 2.68 10 2 C10 2.66 10 3.32 10 4 C7.18230651 6.17364926 5.7809319 7.08677021 2.1875 6.6875 C1.465625 6.460625 0.74375 6.23375 0 6 C-1.125 2.25 -1.125 2.25 0 0 Z " fill="#5A5138" transform="translate(208,126)"/>
<path d="M0 0 C1.98 0.495 1.98 0.495 4 1 C3.67 3.64 3.34 6.28 3 9 C3.66 9 4.32 9 5 9 C4.67 9.66 4.34 10.32 4 11 C2.68 11 1.36 11 0 11 C-0.33 10.01 -0.66 9.02 -1 8 C-0.67 7.34 -0.34 6.68 0 6 C0.66 6 1.32 6 2 6 C2 5.34 2 4.68 2 4 C1.34 3.67 0.68 3.34 0 3 C0 2.01 0 1.02 0 0 Z " fill="#D6D8DA" transform="translate(70,37)"/>
<path d="M0 0 C0.99 0 1.98 0 3 0 C3 0.99 3 1.98 3 3 C3.66 3.33 4.32 3.66 5 4 C0.545 7.465 0.545 7.465 -4 11 C-4.99 10.34 -5.98 9.68 -7 9 C-4.69 7.68 -2.38 6.36 0 5 C0 3.35 0 1.7 0 0 Z " fill="#836138" transform="translate(235,107)"/>
<path d="M0 0 C1.65 0.33 3.3 0.66 5 1 C5.33 2.98 5.66 4.96 6 7 C2.73045798 6.43628586 1.17424117 5.50037734 -1 3 C-0.67 2.01 -0.34 1.02 0 0 Z " fill="#090807" transform="translate(167,98)"/>
<path d="M0 0 C1.98 0.99 3.96 1.98 6 3 C6 3.66 6 4.32 6 5 C3.10765685 5.82638376 1.11257569 6 -2 6 C-1.125 1.125 -1.125 1.125 0 0 Z " fill="#EFF1EF" transform="translate(152,125)"/>
<path d="M0 0 C0 2.83967231 -0.40267181 5.23735711 -1 8 C-0.34 8 0.32 8 1 8 C0.34 9.65 -0.32 11.3 -1 13 C-1.99 12.67 -2.98 12.34 -4 12 C-3.67 11.34 -3.34 10.68 -3 10 C-3 7.34223434 -3.61807057 4.62576483 -4 2 C-2.68 1.34 -1.36 0.68 0 0 Z " fill="#99A4AF" transform="translate(245,44)"/>
<path d="M0 0 C0.99 0.66 1.98 1.32 3 2 C3.1875 5.125 3.1875 5.125 3 8 C2.34 7.67 1.68 7.34 1 7 C0.071875 7.495 0.071875 7.495 -0.875 8 C-3.41505971 9.19532222 -4.41558539 8.92300522 -7 8 C-6 6 -6 6 -3 5 C-2.01 4.34 -1.02 3.68 0 3 C0 2.01 0 1.02 0 0 Z " fill="#D7DBDE" transform="translate(302,23)"/>
<path d="M0 0 C2.1875 0.3125 2.1875 0.3125 4 1 C4 1.99 4 2.98 4 4 C2.02 4.33 0.04 4.66 -2 5 C-2 5.99 -2 6.98 -2 8 C-2.99 7.67 -3.98 7.34 -5 7 C-5.6875 4.9375 -5.6875 4.9375 -6 3 C-5.01 3 -4.02 3 -3 3 C-2.525625 2.484375 -2.05125 1.96875 -1.5625 1.4375 C-1.046875 0.963125 -0.53125 0.48875 0 0 Z " fill="#DFE0E1" transform="translate(77,111)"/>
<path d="M0 0 C0.99 0 1.98 0 3 0 C3.309375 0.9590625 3.309375 0.9590625 3.625 1.9375 C4.89538209 4.34925077 4.89538209 4.34925077 8.125 4.75 C9.07375 4.8325 10.0225 4.915 11 5 C10.67 5.99 10.34 6.98 10 8 C7.03 7.67 4.06 7.34 1 7 C1.66 6.67 2.32 6.34 3 6 C2.65555119 3.52733235 2.65555119 3.52733235 2 1 C1.34 0.67 0.68 0.34 0 0 Z " fill="#D9DCDE" transform="translate(167,106)"/>
<path d="M0 0 C1.66611905 -0.042721 3.33382885 -0.04063832 5 0 C6 1 6 1 6.0625 3.5625 C6.041875 4.366875 6.02125 5.17125 6 6 C5.01 6.33 4.02 6.66 3 7 C0 2.25 0 2.25 0 0 Z " fill="#060405" transform="translate(194,99)"/>
<path d="M0 0 C0.66 0 1.32 0 2 0 C2 0.66 2 1.32 2 2 C1.34 2.66 0.68 3.32 0 4 C0.33 4.99 0.66 5.98 1 7 C1.66 7 2.32 7 3 7 C3 7.66 3 8.32 3 9 C1.68 9 0.36 9 -1 9 C-1 8.34 -1 7.68 -1 7 C-1.99 6.67 -2.98 6.34 -4 6 C-2.84826645 3.53199953 -1.95216435 1.95216435 0 0 Z " fill="#A5A9AF" transform="translate(231,49)"/>
<path d="M0 0 C-1.20523048 3.61569144 -2.07185564 3.94669545 -5.3125 5.75 C-6.48232422 6.42289062 -6.48232422 6.42289062 -7.67578125 7.109375 C-10.30300917 8.11611108 -11.40927388 7.97226335 -14 7 C-12.04480616 5.82807953 -10.0857461 4.6626071 -8.125 3.5 C-7.03445312 2.8503125 -5.94390625 2.200625 -4.8203125 1.53125 C-2 0 -2 0 0 0 Z " fill="#514832" transform="translate(236,110)"/>
<path d="M0 0 C0.66 0 1.32 0 2 0 C2.33 1.32 2.66 2.64 3 4 C-1.625 7 -1.625 7 -5 7 C-4.67 5.35 -4.34 3.7 -4 2 C-2.68 2 -1.36 2 0 2 C0 1.34 0 0.68 0 0 Z " fill="#D38C13" transform="translate(197,90)"/>
<path d="M0 0 C0.99 1.485 0.99 1.485 2 3 C2.65548828 3.83337891 2.65548828 3.83337891 3.32421875 4.68359375 C3.99904297 5.55177734 3.99904297 5.55177734 4.6875 6.4375 C5.14511719 7.01371094 5.60273438 7.58992187 6.07421875 8.18359375 C7 10 7 10 6.64453125 12.22265625 C6.43183594 12.80917969 6.21914062 13.39570313 6 14 C4.98576166 12.61447798 3.98912998 11.21605712 3 9.8125 C2.443125 9.03519531 1.88625 8.25789062 1.3125 7.45703125 C-0.151369 4.71663363 -0.26080213 3.05899163 0 0 Z " fill="#242729" transform="translate(143,204)"/>
<path d="M0 0 C0.66 0 1.32 0 2 0 C6.07877462 7.0547046 6.07877462 7.0547046 5.75 11 C5.5025 11.66 5.255 12.32 5 13 C2.2946129 8.94191935 0 4.95110601 0 0 Z " fill="#292A2E" transform="translate(231,170)"/>
<path d="M0 0 C0.66 0 1.32 0 2 0 C2.28875 0.61875 2.5775 1.2375 2.875 1.875 C3.93720042 4.13325765 3.93720042 4.13325765 6 6 C3 7 3 7 0 7 C-0.66 5.35 -1.32 3.7 -2 2 C-1.34 2 -0.68 2 0 2 C0 1.34 0 0.68 0 0 Z " fill="#A6B1BB" transform="translate(293,35)"/>
<path d="M0 0 C3 2 3 2 3.58203125 4.0234375 C3.65808594 4.79945313 3.73414063 5.57546875 3.8125 6.375 C3.90144531 7.14585937 3.99039063 7.91671875 4.08203125 8.7109375 C4 11 4 11 2 15 C1.34 10.05 0.68 5.1 0 0 Z " fill="#1B1D20" transform="translate(221,128)"/>
<path d="M0 0 C2.97 0.495 2.97 0.495 6 1 C6.33 3.31 6.66 5.62 7 8 C6.01 7.67 5.02 7.34 4 7 C3.67 6.01 3.34 5.02 3 4 C0.99983534 2.79117904 0.99983534 2.79117904 -1 2 C-0.67 1.34 -0.34 0.68 0 0 Z " fill="#9EA9B4" transform="translate(72,118)"/>
<path d="M0 0 C0 0.66 0 1.32 0 2 C0.66 2.33 1.32 2.66 2 3 C0.02 3 -1.96 3 -4 3 C-4 4.65 -4 6.3 -4 8 C-5.32 7.01 -6.64 6.02 -8 5 C-7.1875 3.0625 -7.1875 3.0625 -6 1 C-3 0 -3 0 0 0 Z " fill="#979FAB" transform="translate(231,41)"/>
<path d="M0 0 C0.66 0 1.32 0 2 0 C1.67 1.65 1.34 3.3 1 5 C-1.3431213 4.74438677 -3.67843403 4.40729228 -6 4 C-6.33 3.34 -6.66 2.68 -7 2 C-4.69 2 -2.38 2 0 2 C0 1.34 0 0.68 0 0 Z " fill="#625941" transform="translate(160,137)"/>
<path d="M0 0 C2.52588702 2.36292656 3.88820837 3.66462511 5 7 C4.01 7 3.02 7 2 7 C1.67 7.66 1.34 8.32 1 9 C0.67 7.68 0.34 6.36 0 5 C-1.65 4.67 -3.3 4.34 -5 4 C-4.0409375 3.8453125 -4.0409375 3.8453125 -3.0625 3.6875 C-2.381875 3.460625 -1.70125 3.23375 -1 3 C-0.67 2.01 -0.34 1.02 0 0 Z " fill="#514E46" transform="translate(193,100)"/>
<path d="M0 0 C0.33 0 0.66 0 1 0 C2.125 5.75 2.125 5.75 1 8 C0.34 8 -0.32 8 -1 8 C-0.67 8.99 -0.34 9.98 0 11 C-0.66 11 -1.32 11 -2 11 C-3.14947895 7.44706507 -3.0868937 6.20023331 -1.5625 2.6875 C-1.046875 1.800625 -0.53125 0.91375 0 0 Z " fill="#A3ACB8" transform="translate(57,38)"/>
<path d="M0 0 C6.75 -0.125 6.75 -0.125 9 1 C9 1.66 9 2.32 9 3 C7.63875 2.9690625 7.63875 2.9690625 6.25 2.9375 C3.57327412 2.9889755 1.53011948 3.2215017 -1 4 C-0.67 2.68 -0.34 1.36 0 0 Z " fill="#A2AAB5" transform="translate(55,34)"/>
<path d="M0 0 C0.66 0.33 1.32 0.66 2 1 C1.03644647 10.41002278 1.03644647 10.41002278 0 15 C-0.33 15 -0.66 15 -1 15 C-1.18451025 4.44191344 -1.18451025 4.44191344 0 0 Z " fill="#1C2021" transform="translate(156,82)"/>
<path d="M0 0 C1.32 0.66 2.64 1.32 4 2 C4 2.66 4 3.32 4 4 C2.02 4.99 0.04 5.98 -2 7 C-1.125 1.125 -1.125 1.125 0 0 Z " fill="#242323" transform="translate(195,70)"/>
<path d="M0 0 C-0.33 1.65 -0.66 3.3 -1 5 C-2.11375 4.979375 -3.2275 4.95875 -4.375 4.9375 C-7.83215921 4.73619282 -7.83215921 4.73619282 -10 6 C-9.67 5.01 -9.34 4.02 -9 3 C-2.88888889 0 -2.88888889 0 0 0 Z " fill="#A4ADB8" transform="translate(28,36)"/>
<path d="M0 0 C0.721875 0.391875 1.44375 0.78375 2.1875 1.1875 C2.1875 1.8475 2.1875 2.5075 2.1875 3.1875 C0.82625 3.1565625 0.82625 3.1565625 -0.5625 3.125 C-3.23922588 3.1764755 -5.28238052 3.4090017 -7.8125 4.1875 C-7.8125 3.5275 -7.8125 2.8675 -7.8125 2.1875 C-4.86429158 -0.17106674 -3.72198415 -1.07523986 0 0 Z " fill="#9AA3AE" transform="translate(75.8125,105.8125)"/>
<path d="M0 0 C1.65 0 3.3 0 5 0 C5.66666667 1.33333333 6.33333333 2.66666667 7 4 C6.01 4 5.02 4 4 4 C4 4.99 4 5.98 4 7 C3.01 6.67 2.02 6.34 1 6 C1.33 5.67 1.66 5.34 2 5 C1.34 4.34 0.68 3.68 0 3 C0 2.01 0 1.02 0 0 Z " fill="#D7DAE0" transform="translate(286,85)"/>
<path d="M0 0 C-0.66 0 -1.32 0 -2 0 C-2 0.66 -2 1.32 -2 2 C-3.98 2.33 -5.96 2.66 -8 3 C-8 1.68 -8 0.36 -8 -1 C-4.59745511 -2.2151946 -3.06748874 -1.86240388 0 0 Z " fill="#BE0202" transform="translate(181,71)"/>
<path d="M0 0 C0.33 0 0.66 0 1 0 C1.33 3.63 1.66 7.26 2 11 C-0.31 10.67 -2.62 10.34 -5 10 C-5 9.34 -5 8.68 -5 8 C-3.35 7.67 -1.7 7.34 0 7 C0 4.69 0 2.38 0 0 Z " fill="#50323C" transform="translate(192,53)"/>
<path d="M0 0 C0.99 0 1.98 0 3 0 C5.35953094 2.35953094 5.49141413 3.77895617 6 7 C4.35 6.67 2.7 6.34 1 6 C0.4465236 3.92446352 0 2.15634036 0 0 Z " fill="#D5D6DA" transform="translate(32,45)"/>
<path d="M0 0 C1.91302307 3.26613695 2.35674661 5.99445248 2.625 9.75 C2.69976562 10.73484375 2.77453125 11.7196875 2.8515625 12.734375 C2.92503906 13.85585938 2.92503906 13.85585938 3 15 C1.51171875 13.88671875 1.51171875 13.88671875 0 12 C-0.29296875 9.08203125 -0.29296875 9.08203125 -0.1875 5.8125 C-0.16042969 4.72582031 -0.13335937 3.63914063 -0.10546875 2.51953125 C-0.07066406 1.68808594 -0.03585938 0.85664062 0 0 Z " fill="#32373C" transform="translate(189,37)"/>
<path d="M0 0 C1.4540625 0.0309375 1.4540625 0.0309375 2.9375 0.0625 C1.9475 0.7225 0.9575 1.3825 -0.0625 2.0625 C-0.79215366 4.62532742 -0.79215366 4.62532742 -1.0625 7.0625 C-1.7225 6.0725 -2.3825 5.0825 -3.0625 4.0625 C-3.3925 4.7225 -3.7225 5.3825 -4.0625 6.0625 C-4.7225 6.0625 -5.3825 6.0625 -6.0625 6.0625 C-3.76028481 0.07674051 -3.76028481 0.07674051 0 0 Z " fill="#706147" transform="translate(119.0625,123.9375)"/>
<path d="M0 0 C1.65 1.65 3.3 3.3 5 5 C3.25 5.75 3.25 5.75 1 6 C-1.25 4.0625 -1.25 4.0625 -3 2 C-2.01 1.34 -1.02 0.68 0 0 Z " fill="#45423B" transform="translate(180,108)"/>
<path d="M0 0 C1.485 0.99 1.485 0.99 3 2 C3 2.66 3 3.32 3 4 C4.65 3.67 6.3 3.34 8 3 C6.68 4.32 5.36 5.64 4 7 C3.01 6.67 2.02 6.34 1 6 C1 5.34 1 4.68 1 4 C0.34 3.67 -0.32 3.34 -1 3 C-0.67 2.01 -0.34 1.02 0 0 Z " fill="#91989E" transform="translate(279,75)"/>
<path d="M0 0 C2 2 2 2 2 6 C0.35 6 -1.3 6 -3 6 C-2.625 3.5625 -2.625 3.5625 -2 1 C-1.34 0.67 -0.68 0.34 0 0 Z " fill="#E90404" transform="translate(192,62)"/>
<path d="M0 0 C1.32 0.33 2.64 0.66 4 1 C4 1.99 4 2.98 4 4 C1.69 4.33 -0.62 4.66 -3 5 C-3 5.66 -3 6.32 -3 7 C-3.66 6.67 -4.32 6.34 -5 6 C-4.67 5.01 -4.34 4.02 -4 3 C-3.34 3 -2.68 3 -2 3 C-1.34 2.01 -0.68 1.02 0 0 Z " fill="#E1E2E3" transform="translate(300,32)"/>
<path d="M0 0 C0.66 0.99 1.32 1.98 2 3 C1.06810009 6.10633303 -0.19193628 8.28790442 -2 11 C-2.66 10.67 -3.32 10.34 -4 10 C-2.68 6.7 -1.36 3.4 0 0 Z " fill="#28292B" transform="translate(233,204)"/>
<path d="M0 0 C4.95 1.98 4.95 1.98 10 4 C6 6 6 6 2.8125 5.3125 C1.884375 4.879375 0.95625 4.44625 0 4 C-0.33 3.01 -0.66 2.02 -1 1 C-0.67 0.67 -0.34 0.34 0 0 Z " fill="#535036" transform="translate(145,134)"/>
<path d="M0 0 C0.99 0.33 1.98 0.66 3 1 C3 4 3 4 2 7 C1.01 6.67 0.02 6.34 -1 6 C-1.33 4.35 -1.66 2.7 -2 1 C-1.34 0.67 -0.68 0.34 0 0 Z " fill="#ACB2B8" transform="translate(31,47)"/>
<path d="M0 0 C1.65 0 3.3 0 5 0 C5.66 1.65 6.32 3.3 7 5 C4.03824877 4.38722388 2.61941217 3.74627478 0 2 C0 1.34 0 0.68 0 0 Z " fill="#A3AAB4" transform="translate(58,46)"/>
<path d="M0 0 C0.99 0.33 1.98 0.66 3 1 C2.42655063 3.86724686 2.1385485 4.8614515 0 7 C-0.66 5.35 -1.32 3.7 -2 2 C-1.34 1.34 -0.68 0.68 0 0 Z " fill="#B0B8C2" transform="translate(19,100)"/>
<path d="M0 0 C2.475 0.99 2.475 0.99 5 2 C5 3.66666667 5 5.33333333 5 7 C3.35 6.67 1.7 6.34 0 6 C-0.38218767 4.34385343 -0.71395102 2.67542976 -1 1 C-0.67 0.67 -0.34 0.34 0 0 Z " fill="#9CA3A7" transform="translate(290,82)"/>
<path d="M0 0 C0.66 0 1.32 0 2 0 C2.66 2.97 3.32 5.94 4 9 C3.01 9.495 3.01 9.495 2 10 C2 9.34 2 8.68 2 8 C1.34 8 0.68 8 0 8 C0 5.36 0 2.72 0 0 Z " fill="#97A0AB" transform="translate(73,38)"/>
<path d="M0 0 C3.60502045 0.59831222 3.90757505 0.87419938 6.25 4.0625 C7.11625 5.5165625 7.11625 5.5165625 8 7 C7.01 7 6.02 7 5 7 C3.61328125 5.46875 3.61328125 5.46875 2.3125 3.5 C1.87550781 2.8503125 1.43851563 2.200625 0.98828125 1.53125 C0.49908203 0.77328125 0.49908203 0.77328125 0 0 Z " fill="#1B1C1F" transform="translate(224,163)"/>
<path d="M0 0 C0.99 0.495 0.99 0.495 2 1 C1.67 2.32 1.34 3.64 1 5 C1.639375 5.2475 2.27875 5.495 2.9375 5.75 C5 7 5 7 5.75 9.125 C5.8325 9.74375 5.915 10.3625 6 11 C5.67 10.34 5.34 9.68 5 9 C3.68352881 8.30062468 2.34977849 7.63270867 1 7 C0 6 0 6 -0.0625 2.9375 C-0.041875 1.968125 -0.02125 0.99875 0 0 Z " fill="#493F25" transform="translate(231,98)"/>
<path d="M0 0 C2.125 0.375 2.125 0.375 4 1 C4 1.99 4 2.98 4 4 C3.236875 3.95875 2.47375 3.9175 1.6875 3.875 C-1.22718416 3.77919176 -1.22718416 3.77919176 -4 6 C-2.84826645 3.53199953 -1.95216435 1.95216435 0 0 Z " fill="#E7E8E8" transform="translate(26,97)"/>
<path d="M0 0 C1.32 0 2.64 0 4 0 C4.66 1.32 5.32 2.64 6 4 C4.125 4.625 4.125 4.625 2 5 C1.34 4.34 0.68 3.68 0 3 C0 2.01 0 1.02 0 0 Z " fill="#846636" transform="translate(182,96)"/>
<path d="M0 0 C-2.91708924 1.98362069 -4.12380904 1.9876191 -7.75 1.625 C-8.8225 1.41875 -9.895 1.2125 -11 1 C-11 0.67 -11 0.34 -11 0 C-7.01803543 -1.05404945 -4.01804691 -0.84098656 0 0 Z " fill="#404040" transform="translate(211,229)"/>
<path d="M0 0 C3.95820859 0.56545837 6.6659053 1.80902348 10 4 C9.34 4.66 8.68 5.32 8 6 C6.66402348 5.19185349 5.331275 4.37836819 4 3.5625 C3.2575 3.11003906 2.515 2.65757812 1.75 2.19140625 C1.1725 1.79824219 0.595 1.40507812 0 1 C0 0.67 0 0.34 0 0 Z " fill="#4D4124" transform="translate(151,132)"/>
<path d="M0 0 C1.98 0 3.96 0 6 0 C6 1.32 6 2.64 6 4 C4.68 4.33 3.36 4.66 2 5 C1.34 3.35 0.68 1.7 0 0 Z " fill="#A2A6AE" transform="translate(77,104)"/>
<path d="M0 0 C0.66 0.33 1.32 0.66 2 1 C1.50168276 4.68754757 0.89932357 6.60490662 -2 9 C-2.33 8.01 -2.66 7.02 -3 6 C-2.34 5.67 -1.68 5.34 -1 5 C-0.34444881 2.47266765 -0.34444881 2.47266765 0 0 Z " fill="#343E40" transform="translate(202,64)"/>
<path d="M0 0 C1.32 0 2.64 0 4 0 C4.33 1.32 4.66 2.64 5 4 C4.34 4 3.68 4 3 4 C2.67 4.99 2.34 5.98 2 7 C1.34 4.69 0.68 2.38 0 0 Z " fill="#20272B" transform="translate(195,63)"/>
<path d="M0 0 C2.625 0.375 2.625 0.375 5 1 C5 1.66 5 2.32 5 3 C3.88625 2.9071875 3.88625 2.9071875 2.75 2.8125 C-0.45383006 3.03094296 -1.64031256 3.90250005 -4 6 C-2.84826645 3.53199953 -1.95216435 1.95216435 0 0 Z " fill="#E9E8E9" transform="translate(231,47)"/>
<path d="M0 0 C1.32 1.65 2.64 3.3 4 5 C2.35 5.66 0.7 6.32 -1 7 C-2 4 -2 4 -1.0625 1.8125 C-0.5365625 0.9153125 -0.5365625 0.9153125 0 0 Z " fill="#D9DBE1" transform="translate(35,99)"/>
<path d="M0 0 C0.99 0.33 1.98 0.66 3 1 C3 1.66 3 2.32 3 3 C3.66 3.33 4.32 3.66 5 4 C3.35 4.33 1.7 4.66 0 5 C-0.66 4.01 -1.32 3.02 -2 2 C-1.34 2 -0.68 2 0 2 C0 1.34 0 0.68 0 0 Z " fill="#D7D9DD" transform="translate(239,50)"/>
</g>
<defs>
<clipPath id="clip0_13_8">
<rect width="74" height="24" fill="white"/>
</clipPath>
</defs>
</svg>
