<?xml version="1.0" standalone="no"?>
<!DOCTYPE svg PUBLIC "-//W3C//DTD SVG 20010904//EN"
 "http://www.w3.org/TR/2001/REC-SVG-20010904/DTD/svg10.dtd">
<svg version="1.0" xmlns="http://www.w3.org/2000/svg"
 width="74" height="24" viewBox="0 0 320.000000 320.000000"
 preserveAspectRatio="xMidYMid meet">

<g transform="translate(0.000000,320.000000) scale(0.100000,-0.100000)"
fill="#000000" stroke="none">
<path d="M0 1600 l0 -1600 1600 0 1600 0 0 664 c0 572 -3 665 -15 670 -8 3
-12 12 -9 21 4 9 -1 17 -11 21 -11 5 -15 14 -11 29 6 24 -18 43 -29 25 -9 -15
-35 -12 -29 3 3 8 -2 20 -10 27 -13 10 -17 9 -23 -6 -6 -14 -10 -5 -14 31 l-6
50 -1 -47 c-1 -26 -11 -95 -23 -154 -136 -705 -768 -1204 -1483 -1171 -371 17
-686 157 -952 422 -206 206 -334 440 -396 728 -31 147 -31 427 0 574 62 288
190 522 396 728 224 223 496 362 801 410 144 23 387 16 520 -15 232 -53 430
-147 597 -283 58 -47 75 -57 62 -35 -4 7 -3 8 5 4 6 -4 9 -11 7 -15 -3 -4 18
-30 47 -57 28 -27 43 -39 34 -28 -14 17 -15 23 -5 27 10 4 10 8 -2 16 -10 7
-16 7 -18 0 -3 -6 -9 -5 -18 2 -13 10 -12 14 2 30 9 10 14 27 11 39 -3 11 0
20 5 20 6 0 3 9 -7 20 -16 18 -15 52 2 48 10 -2 63 13 63 18 0 2 -5 13 -12 24
-7 10 -9 23 -5 27 9 8 28 -17 21 -28 -2 -4 0 -10 6 -14 6 -4 10 6 10 23 0 36
23 94 44 112 23 18 20 29 -10 36 -22 6 -24 8 -10 16 9 5 21 6 27 2 8 -4 9 1 4
15 -8 25 4 49 15 31 6 -9 11 -7 19 9 13 24 5 65 -10 56 -5 -4 -9 -1 -9 4 0 6
6 11 14 11 8 0 22 3 32 7 11 4 15 2 11 -4 -7 -12 18 -51 28 -42 3 4 0 13 -7
20 -16 17 -22 49 -9 49 5 0 13 -5 16 -10 4 -6 10 -8 15 -5 4 3 11 -2 14 -11 3
-8 11 -12 17 -8 8 5 6 10 -5 16 -9 5 -16 15 -16 22 0 8 -14 16 -31 20 -17 3
-668 6 -1445 6 l-1414 0 0 -1600z m2700 1356 c0 -3 -4 -8 -10 -11 -5 -3 -10
-1 -10 4 0 6 5 11 10 11 6 0 10 -2 10 -4z m20 -26 c0 -5 -4 -10 -10 -10 -5 0
-10 5 -10 10 0 6 5 10 10 10 6 0 10 -4 10 -10z m-170 -220 c0 -5 -2 -10 -4
-10 -3 0 -8 5 -11 10 -3 6 -1 10 4 10 6 0 11 -4 11 -10z m502 -1312 c-7 -7
-12 -8 -12 -2 0 14 12 26 19 19 2 -3 -1 -11 -7 -17z"/>
<path d="M2950 3185 c0 -8 2 -15 4 -15 2 0 6 7 10 15 3 8 1 15 -4 15 -6 0 -10
-7 -10 -15z"/>
<path d="M2801 3046 c-15 -16 -19 -26 -11 -31 16 -10 40 2 40 20 0 8 5 15 10
15 6 0 10 5 10 10 0 18 -26 11 -49 -14z"/>
<path d="M1490 3014 c-220 -26 -385 -74 -549 -159 -383 -200 -649 -561 -738
-1000 -26 -132 -24 -406 5 -535 96 -439 371 -796 767 -993 113 -56 211 -90
345 -118 150 -32 411 -33 557 -1 542 118 957 512 1092 1037 31 122 41 207 39
355 -1 74 -3 114 -5 89 -4 -41 -7 -46 -24 -42 -25 7 -25 -13 1 -27 15 -8 20
-20 19 -48 -1 -24 -3 -29 -6 -14 -6 33 -49 73 -71 65 -9 -4 -20 -11 -24 -17
-5 -7 -8 -4 -8 7 0 9 4 17 10 17 5 0 7 7 4 15 -5 11 -10 13 -19 5 -9 -8 -14
-5 -18 11 -4 15 0 23 13 26 10 3 16 11 13 18 -2 8 -12 11 -21 7 -25 -9 -42
-28 -34 -37 4 -5 1 -5 -6 -1 -7 4 -10 12 -7 17 4 5 -1 12 -10 16 -12 4 -15 13
-11 34 3 18 0 34 -10 44 -20 19 -24 19 -40 -2 -11 -15 -13 -9 -11 46 3 70 -10
86 -43 56 -18 -16 -20 -17 -20 -2 0 10 5 17 10 17 6 0 10 4 10 9 0 6 -9 8 -20
6 -15 -3 -20 2 -20 17 0 18 -2 19 -16 7 -10 -8 -12 -15 -5 -17 11 -4 16 -32 6
-32 -15 0 -42 35 -38 50 3 11 -4 24 -18 34 l-23 16 22 0 c17 0 22 6 22 25 0
21 -5 25 -30 25 -29 0 -40 13 -20 25 6 3 10 12 10 18 0 9 -2 9 -8 0 -5 -7 -13
-9 -21 -4 -11 7 -9 11 8 20 17 9 19 16 11 31 -6 11 -14 28 -19 38 -5 11 -5 25
-1 32 4 7 6 19 3 27 -3 7 0 13 6 13 6 0 11 5 11 11 0 5 -4 7 -10 4 -5 -3 -10
-2 -10 4 0 6 -6 8 -14 5 -8 -3 -17 -1 -20 4 -3 5 0 10 7 9 37 -1 48 4 45 21
-2 9 -12 17 -23 18 -35 2 -38 4 -27 17 11 14 -2 57 -18 57 -6 0 -8 5 -5 10 4
6 10 8 14 6 4 -3 14 6 21 19 7 14 21 27 32 31 10 3 18 10 18 15 0 6 5 7 11 3
7 -4 10 -1 7 7 -3 8 -1 22 4 33 7 13 7 16 -1 12 -6 -4 -11 0 -11 8 0 9 6 16
13 16 7 0 8 3 2 8 -5 4 -15 16 -21 27 -7 11 -19 19 -28 17 -9 -2 -16 1 -16 6
0 15 26 22 39 9 6 -6 13 -8 16 -5 4 3 -8 16 -26 29 -18 13 -29 18 -26 12 4 -7
3 -14 -2 -18 -6 -3 -8 3 -6 14 4 23 -40 62 -160 140 -153 100 -338 173 -520
205 -92 16 -292 28 -355 20z m268 -252 c-5 -68 -29 -132 -50 -132 -16 0 -3
131 17 169 26 52 38 39 33 -37z m-434 16 c58 -67 91 -148 67 -163 -11 -6 -96
101 -111 140 -13 33 -13 65 -1 65 5 0 26 -19 45 -42z m846 -148 c0 -6 -16 -35
-36 -65 -39 -58 -99 -104 -115 -88 -16 16 75 136 116 153 27 12 35 12 35 0z
m386 -49 c-4 -6 -14 -7 -23 -4 -15 6 -14 7 3 13 22 9 29 6 20 -9z m-782 -56
c311 -128 358 -553 81 -731 l-51 -32 -19 -109 c-26 -159 -37 -160 -31 -3 6
133 7 135 34 154 63 45 139 133 155 181 25 72 23 199 -5 272 -29 80 -112 162
-193 192 -123 47 -237 38 -332 -25 -143 -94 -200 -285 -130 -438 24 -52 106
-146 155 -177 21 -13 25 -27 38 -149 17 -161 17 -170 4 -170 -12 0 -23 46 -46
178 -16 95 -20 105 -46 118 -52 27 -139 124 -170 190 -100 213 11 473 241 566
72 29 224 21 315 -17z m-702 -51 c44 -22 87 -68 76 -79 -8 -9 -114 44 -142 70
-55 51 -26 55 66 9z m1488 26 c0 -5 -7 -10 -15 -10 -8 0 -15 5 -15 10 0 6 7
10 15 10 8 0 15 -4 15 -10z m-50 -49 c0 -11 -4 -23 -10 -26 -6 -4 -10 5 -10
19 0 14 5 26 10 26 6 0 10 -9 10 -19z m-54 -101 c0 -11 -4 -20 -8 -20 -4 0 -8
9 -8 20 0 11 4 20 8 20 4 0 8 -9 8 -20z m14 -52 c0 -4 -4 -8 -9 -8 -6 0 -12 4
-15 8 -3 5 1 9 9 9 8 0 15 -4 15 -9z m20 -48 c0 -5 7 -10 16 -10 9 0 14 -5 12
-11 -6 -18 -20 -15 -35 9 -10 14 -11 22 -4 22 6 0 11 -4 11 -10z m-987 -84
c22 -9 39 -26 51 -55 18 -39 21 -41 63 -41 38 0 45 3 55 28 35 82 114 110 157
56 28 -35 26 -56 -5 -93 -18 -21 -38 -33 -66 -37 -29 -5 -42 -13 -48 -29 -8
-21 -30 -200 -46 -370 -5 -59 -8 -66 -16 -45 -6 14 -8 111 -6 225 l3 201 -25
-4 -25 -4 0 -203 c0 -180 -4 -229 -19 -214 -3 2 -10 76 -16 164 -12 171 -24
245 -43 257 -7 4 -23 8 -37 8 -14 0 -40 9 -57 20 -56 34 -56 96 0 131 38 23
39 23 80 5z m1354 -528 c-3 -8 -6 -5 -6 6 -1 11 2 17 5 13 3 -3 4 -12 1 -19z
m-1897 -68 c25 -12 159 -88 298 -167 249 -143 252 -145 252 -178 0 -18 -7 -52
-15 -76 -11 -29 -12 -46 -5 -53 17 -17 11 -36 -10 -36 -12 0 -25 -10 -32 -25
-9 -21 -8 -27 12 -43 31 -25 18 -44 -25 -36 -34 6 -59 -11 -35 -26 6 -4 10
-18 8 -31 -2 -19 -8 -24 -31 -22 -39 3 -90 -52 -73 -79 14 -23 -10 -43 -31
-27 -6 6 -21 8 -31 5 -21 -7 -556 296 -605 342 -76 72 -100 216 -53 317 29 63
103 130 165 150 62 20 155 14 211 -15z m1490 -7 c62 -20 141 -88 173 -147 33
-63 31 -183 -5 -251 -14 -27 -39 -62 -55 -77 -15 -15 -154 -99 -308 -186 -319
-183 -295 -178 -376 -82 -23 27 -48 50 -56 50 -12 0 -17 13 -14 33 1 4 -6 22
-16 40 -13 25 -18 28 -21 15 -4 -22 -42 -24 -42 -2 0 9 9 18 20 21 18 5 18 7
4 35 -12 23 -18 27 -28 19 -16 -14 -42 -5 -50 16 -7 18 10 43 30 43 10 0 10 9
-2 44 -31 91 -39 83 261 258 149 86 290 164 315 172 60 20 107 19 170 -1z
m487 -15 c-3 -8 -6 -5 -6 6 -1 11 2 17 5 13 3 -3 4 -12 1 -19z m62 -52 c-1
-21 -3 -24 -6 -11 -3 11 -9 24 -14 30 -14 14 -11 25 6 19 9 -4 15 -18 14 -38z
m-1260 -22 c42 -9 39 -31 -6 -43 -110 -29 -138 -33 -202 -29 -116 6 -111 22
17 54 92 24 140 28 191 18z m-155 -470 c24 -23 3 -58 -30 -50 -17 5 -23 2 -22
-6 4 -17 -34 -17 -40 0 -2 7 5 16 17 19 12 3 21 11 21 17 0 13 20 36 31 36 4
0 15 -7 23 -16z m111 -34 c3 -5 -1 -10 -9 -10 -9 0 -16 5 -16 10 0 6 4 10 9
10 6 0 13 -4 16 -10z m-105 -50 c0 -5 -4 -10 -10 -10 -5 0 -10 5 -10 10 0 6 5
10 10 10 6 0 10 -4 10 -10z m86 -15 c4 -9 14 -13 23 -11 25 8 43 -9 39 -35 -4
-33 -52 -35 -56 -2 -2 13 -8 20 -17 17 -16 -7 -29 12 -21 31 7 19 25 19 32 0z
m-186 -16 c0 -5 -4 -9 -10 -9 -5 0 -10 7 -10 16 0 8 5 12 10 9 6 -3 10 -10 10
-16z m136 -38 c-9 -14 -33 -14 -41 -1 -4 6 -1 18 6 26 11 13 14 13 27 0 8 -8
11 -19 8 -25z m-62 3 c7 -18 -22 -75 -40 -81 -7 -2 -19 3 -27 12 -15 14 -15
19 0 50 18 38 56 48 67 19z m-119 -4 c10 -16 -6 -81 -22 -87 -16 -6 -35 15
-26 29 2 5 -1 15 -7 23 -10 12 -10 18 0 30 14 17 46 20 55 5z m-85 -30 c0 -5
-4 -10 -10 -10 -5 0 -10 5 -10 10 0 6 5 10 10 10 6 0 10 -4 10 -10z m430 0 c0
-5 -4 -10 -10 -10 -5 0 -10 5 -10 10 0 6 5 10 10 10 6 0 10 -4 10 -10z m-128
-35 c0 -5 -5 -11 -11 -13 -6 -2 -11 4 -11 13 0 9 5 15 11 13 6 -2 11 -8 11
-13z m214 -24 c-9 -14 -33 -14 -41 -1 -4 6 -1 18 6 26 11 13 14 13 27 0 8 -8
11 -19 8 -25z m-262 -36 c5 -22 18 -46 28 -55 21 -17 16 -45 -9 -54 -21 -8
-45 13 -40 35 3 11 -2 19 -15 23 -18 4 -19 10 -13 43 4 21 9 41 12 46 10 17
28 -1 37 -38z m153 32 c20 -14 3 -37 -27 -37 -31 0 -45 13 -36 35 5 15 44 17
63 2z m-407 -12 c0 -8 -4 -15 -10 -15 -5 0 -10 7 -10 15 0 8 5 15 10 15 6 0
10 -7 10 -15z m144 9 c34 -13 5 -94 -34 -94 -29 0 -34 36 -10 70 24 33 22 32
44 24z m-190 -69 c3 -9 -1 -18 -10 -22 -19 -7 -39 11 -30 26 10 16 33 13 40
-4z m114 -12 c5 -17 -26 -29 -40 -15 -6 6 -7 15 -3 22 9 14 37 9 43 -7z m282
9 c0 -13 -12 -22 -22 -16 -10 6 -1 24 13 24 5 0 9 -4 9 -8z m110 -21 c7 -15 6
-23 -6 -35 -19 -19 -26 -20 -42 -4 -16 16 -15 45 1 51 24 10 36 7 47 -12z
m-452 -24 c2 -12 -3 -17 -17 -17 -12 0 -21 6 -21 13 0 31 32 34 38 4z m182 8
c0 -8 -4 -15 -9 -15 -13 0 -22 16 -14 24 11 11 23 6 23 -9z m190 -55 c0 -13
-7 -20 -20 -20 -13 0 -20 7 -20 20 0 13 7 20 20 20 13 0 20 -7 20 -20z m-222
-7 c5 -17 -26 -29 -40 -15 -6 6 -7 15 -3 22 9 14 37 9 43 -7z m-44 -26 c9 -14
7 -21 -7 -32 -33 -24 -71 11 -46 42 15 18 39 13 53 -10z m145 -3 c12 -11 12
-16 1 -28 -16 -20 -49 -21 -56 -1 -4 8 -12 15 -20 15 -14 0 -19 21 -8 33 10 9
67 -4 83 -19z m178 -10 c-9 -9 -28 6 -21 18 4 6 10 6 17 -1 6 -6 8 -13 4 -17z
m-467 -9 c0 -21 -19 -28 -36 -15 -10 9 -11 16 -3 26 12 15 39 8 39 -11z m78
-12 c5 -17 -26 -29 -40 -15 -6 6 -7 15 -3 22 9 14 37 9 43 -7z m342 -2 c0 -6
-4 -13 -10 -16 -5 -3 -10 1 -10 9 0 9 5 16 10 16 6 0 10 -4 10 -9z m-66 -23
c8 -14 7 -21 -6 -34 -30 -30 -75 9 -48 42 16 18 39 15 54 -8z m165 3 c13 -24
-9 -57 -33 -48 -23 9 -31 34 -16 52 17 20 37 19 49 -4z m-354 -41 c0 -8 -8
-16 -17 -18 -13 -2 -18 3 -18 18 0 15 5 20 18 18 9 -2 17 -10 17 -18z m-72 4
c9 -10 -4 -34 -18 -34 -17 0 -28 17 -20 30 7 11 28 13 38 4z m125 -11 c-2 -10
-10 -18 -18 -18 -8 0 -16 8 -18 18 -2 12 3 17 18 17 15 0 20 -5 18 -17z m203
-6 c-13 -13 -26 -3 -16 12 3 6 11 8 17 5 6 -4 6 -10 -1 -17z m-149 -2 c0 -5
-5 -11 -11 -13 -6 -2 -11 4 -11 13 0 9 5 15 11 13 6 -2 11 -8 11 -13z m-252
-5 c0 -5 -4 -10 -10 -10 -5 0 -10 5 -10 10 0 6 5 10 10 10 6 0 10 -4 10 -10z
m318 -27 c5 -17 -26 -29 -40 -15 -6 6 -7 15 -3 22 9 14 37 9 43 -7z m-115 -25
c6 -19 -3 -38 -18 -38 -18 0 -28 17 -21 35 7 18 33 20 39 3z m-126 -24 c-9 -9
-28 6 -21 18 4 6 10 6 17 -1 6 -6 8 -13 4 -17z"/>
<path d="M1745 2109 c-4 -6 -4 -13 -1 -16 8 -8 36 5 36 17 0 13 -27 13 -35 -1z"/>
<path d="M1450 2100 c0 -6 12 -15 26 -20 35 -14 36 -13 24 10 -11 21 -50 28
-50 10z"/>
<path d="M2785 2959 c-4 -6 -5 -12 -2 -15 2 -3 7 2 10 11 7 17 1 20 -8 4z"/>
<path d="M2740 2930 c0 -5 7 -10 16 -10 8 0 12 5 9 10 -3 6 -10 10 -16 10 -5
0 -9 -4 -9 -10z"/>
<path d="M2690 2764 c0 -8 5 -12 10 -9 6 3 10 10 10 16 0 5 -4 9 -10 9 -5 0
-10 -7 -10 -16z"/>
<path d="M2642 2741 c1 -17 5 -28 10 -25 11 7 10 41 -1 49 -5 3 -9 -8 -9 -24z"/>
<path d="M2635 2550 c27 -27 51 -50 54 -50 8 0 -84 98 -94 99 -5 1 13 -21 40
-49z"/>
<path d="M2680 2563 c0 -5 12 -20 28 -34 l27 -24 -25 30 c-14 17 -26 32 -27
34 -2 2 -3 0 -3 -6z"/>
<path d="M2705 2470 c10 -11 20 -20 23 -20 3 0 -3 9 -13 20 -10 11 -20 20 -23
20 -3 0 3 -9 13 -20z"/>
<path d="M2740 2486 c0 -2 8 -10 18 -17 15 -13 16 -12 3 4 -13 16 -21 21 -21
13z"/>
<path d="M2600 2460 c0 -5 -7 -10 -15 -10 -8 0 -15 -4 -15 -9 0 -5 7 -8 16 -7
19 3 41 36 24 36 -5 0 -10 -4 -10 -10z"/>
<path d="M2535 2401 c-12 -11 -3 -18 24 -17 17 1 27 6 24 13 -4 11 -39 14 -48
4z"/>
<path d="M2642 2118 c-7 -7 -12 -16 -12 -21 0 -5 7 -1 16 8 9 9 14 18 12 20
-2 3 -10 -1 -16 -7z"/>
<path d="M2600 2110 c0 -5 5 -10 11 -10 5 0 7 5 4 10 -3 6 -8 10 -11 10 -2 0
-4 -4 -4 -10z"/>
<path d="M2675 1970 c3 -5 11 -10 16 -10 6 0 7 5 4 10 -3 6 -11 10 -16 10 -6
0 -7 -4 -4 -10z"/>
<path d="M2797 1834 c-4 -4 -7 -14 -7 -23 0 -11 3 -12 11 -4 6 6 10 16 7 23
-2 6 -7 8 -11 4z"/>
<path d="M2991 1794 c0 -11 3 -14 6 -6 3 7 2 16 -1 19 -3 4 -6 -2 -5 -13z"/>
<path d="M3042 1730 c0 -19 2 -27 5 -17 2 9 2 25 0 35 -3 9 -5 1 -5 -18z"/>
<path d="M3060 1500 c0 -5 7 -10 15 -10 8 0 15 -5 15 -12 0 -6 3 -8 6 -5 8 8
-14 37 -27 37 -5 0 -9 -4 -9 -10z"/>
<path d="M3125 1500 c-3 -5 -2 -10 4 -10 5 0 13 5 16 10 3 6 2 10 -4 10 -5 0
-13 -4 -16 -10z"/>
<path d="M3160 1401 c0 -13 26 -32 33 -24 14 13 6 33 -13 33 -11 0 -20 -4 -20
-9z"/>
</g>
</svg>
